Nobel-Black.ufo
<glyph name="exclam" format="1">
  <advance width="366"/>
  <unicode hex="0021"/>
  <outline>
    <contour>
      <point x="301" y="523" type="line"/>
      <point x="264" y="267" type="line"/>
      <point x="101" y="267" type="line"/>
      <point x="65" y="523" type="line"/>
      <point x="65" y="730" type="line"/>
      <point x="301" y="730" type="line"/>
    </contour>
    <contour>
      <point x="301" y="0" type="line"/>
      <point x="65" y="0" type="line"/>
      <point x="65" y="204" type="line"/>
      <point x="301" y="204" type="line"/>
    </contour>
  </outline>
</glyph>
<glyph name="quotedbl" format="1">
  <advance width="590"/>
  <unicode hex="0022"/>
  <outline>
    <contour>
      <point x="549" y="553" type="line"/>
      <point x="507" y="366" type="line"/>
      <point x="373" y="366" type="line"/>
      <point x="331" y="553" type="line"/>
      <point x="331" y="730" type="line"/>
      <point x="549" y="730" type="line"/>
    </contour>
    <contour>
      <point x="259" y="553" type="line"/>
      <point x="217" y="366" type="line"/>
      <point x="83" y="366" type="line"/>
      <point x="41" y="553" type="line"/>
      <point x="41" y="730" type="line"/>
      <point x="259" y="730" type="line"/>
    </contour>
  </outline>
</glyph>
<glyph name="numbersign" format="1">
  <advance width="686"/>
  <unicode hex="0023"/>
  <outline>
    <contour>
      <point x="631" y="127" type="line"/>
      <point x="509" y="127" type="line"/>
      <point x="498" y="0" type="line"/>
      <point x="373" y="0" type="line"/>
      <point x="384" y="127" type="line"/>
      <point x="260" y="127" type="line"/>
      <point x="249" y="0" type="line"/>
      <point x="124" y="0" type="line"/>
      <point x="135" y="127" type="line"/>
      <point x="55" y="127" type="line"/>
      <point x="55" y="303" type="line"/>
      <point x="150" y="303" type="line"/>
      <point x="161" y="427" type="line"/>
      <point x="55" y="427" type="line"/>
      <point x="55" y="603" type="line"/>
      <point x="177" y="603" type="line"/>
      <point x="188" y="730" type="line"/>
      <point x="313" y="730" type="line"/>
      <point x="302" y="603" type="line"/>
      <point x="426" y="603" type="line"/>
      <point x="437" y="730" type="line"/>
      <point x="562" y="730" type="line"/>
      <point x="551" y="603" type="line"/>
      <point x="631" y="603" type="line"/>
      <point x="631" y="427" type="line"/>
      <point x="536" y="427" type="line"/>
      <point x="525" y="303" type="line"/>
      <point x="631" y="303" type="line"/>
    </contour>
    <contour>
      <point x="415" y="432" type="line"/>
      <point x="284" y="432" type="line"/>
      <point x="271" y="298" type="line"/>
      <point x="402" y="298" type="line"/>
    </contour>
  </outline>
</glyph>
<glyph name="dollar" format="1">
  <advance width="740"/>
  <unicode hex="0024"/>
  <outline>
    <contour>
      <point x="713" y="225" type="curve" smooth="yes"/>
      <point x="713" y="94"/>
      <point x="600" y="16"/>
      <point x="434" y="1" type="curve"/>
      <point x="434" y="-100" type="line"/>
      <point x="302" y="-100" type="line"/>
      <point x="302" y="1" type="line"/>
      <point x="206" y="9"/>
      <point x="118" y="37"/>
      <point x="23" y="92" type="curve"/>
      <point x="108" y="232" type="line"/>
      <point x="174" y="191"/>
      <point x="245" y="168"/>
      <point x="312" y="159" type="curve"/>
      <point x="312" y="280" type="line"/>
      <point x="111" y="311"/>
      <point x="35" y="367"/>
      <point x="35" y="502" type="curve" smooth="yes"/>
      <point x="35" y="640"/>
      <point x="149" y="713"/>
      <point x="302" y="729" type="curve"/>
      <point x="302" y="800" type="line"/>
      <point x="434" y="800" type="line"/>
      <point x="434" y="730" type="line"/>
      <point x="529" y="722"/>
      <point x="601" y="699"/>
      <point x="683" y="654" type="curve"/>
      <point x="607" y="507" type="line"/>
      <point x="552" y="537"/>
      <point x="488" y="562"/>
      <point x="424" y="571" type="curve"/>
      <point x="424" y="440" type="line"/>
      <point x="638" y="410"/>
      <point x="713" y="366"/>
    </contour>
    <contour>
      <point x="312" y="456" type="curve"/>
      <point x="312" y="572" type="line"/>
      <point x="255" y="565"/>
      <point x="232" y="546"/>
      <point x="232" y="517" type="curve" smooth="yes"/>
      <point x="232" y="487"/>
      <point x="247" y="469"/>
    </contour>
    <contour>
      <point x="516" y="210" type="curve" smooth="yes"/>
      <point x="516" y="237"/>
      <point x="506" y="251"/>
      <point x="424" y="264" type="curve"/>
      <point x="424" y="157" type="line"/>
      <point x="492" y="163"/>
      <point x="516" y="182"/>
    </contour>
  </outline>
</glyph>
<glyph name="ampersand" format="1">
  <advance width="735"/>
  <unicode hex="0026"/>
  <outline>
    <contour>
      <point x="736" y="0" type="line"/>
      <point x="508" y="0" type="line"/>
      <point x="475" y="40" type="line"/>
      <point x="415" y="11"/>
      <point x="350" y="-8"/>
      <point x="280" y="-8" type="curve" smooth="yes"/>
      <point x="121" y="-8"/>
      <point x="15" y="60"/>
      <point x="15" y="204" type="curve" smooth="yes"/>
      <point x="15" y="302"/>
      <point x="60" y="362"/>
      <point x="174" y="419" type="curve"/>
      <point x="164" y="431" type="line" smooth="yes"/>
      <point x="130" y="471"/>
      <point x="114" y="520"/>
      <point x="114" y="569" type="curve" smooth="yes"/>
      <point x="114" y="665"/>
      <point x="197" y="742"/>
      <point x="335" y="742" type="curve" smooth="yes"/>
      <point x="458" y="742"/>
      <point x="546" y="686"/>
      <point x="546" y="574" type="curve" smooth="yes"/>
      <point x="546" y="496"/>
      <point x="496" y="440"/>
      <point x="417" y="393" type="curve"/>
      <point x="512" y="276" type="line"/>
      <point x="546" y="311"/>
      <point x="578" y="349"/>
      <point x="605" y="381" type="curve"/>
      <point x="730" y="254" type="line"/>
      <point x="699" y="216"/>
      <point x="663" y="177"/>
      <point x="622" y="141" type="curve"/>
    </contour>
    <contour>
      <point x="380" y="569" type="curve" smooth="yes"/>
      <point x="380" y="594"/>
      <point x="362" y="615"/>
      <point x="335" y="615" type="curve" smooth="yes"/>
      <point x="312" y="615"/>
      <point x="292" y="602"/>
      <point x="292" y="580" type="curve" smooth="yes"/>
      <point x="292" y="554"/>
      <point x="300" y="537"/>
      <point x="321" y="511" type="curve" smooth="yes"/>
      <point x="334" y="495" type="line"/>
      <point x="367" y="519"/>
      <point x="380" y="544"/>
    </contour>
    <contour>
      <point x="372" y="169" type="curve"/>
      <point x="264" y="305" type="line"/>
      <point x="243" y="284"/>
      <point x="234" y="262"/>
      <point x="234" y="233" type="curve" smooth="yes"/>
      <point x="234" y="191"/>
      <point x="267" y="160"/>
      <point x="329" y="160" type="curve" smooth="yes"/>
      <point x="343" y="160"/>
      <point x="357" y="163"/>
    </contour>
  </outline>
</glyph>
<glyph name="quotesingle" format="1">
  <advance width="300"/>
  <unicode hex="0027"/>
  <outline>
    <contour>
      <point x="259" y="553" type="line"/>
      <point x="217" y="366" type="line"/>
      <point x="83" y="366" type="line"/>
      <point x="41" y="553" type="line"/>
      <point x="41" y="730" type="line"/>
      <point x="259" y="730" type="line"/>
    </contour>
  </outline>
</glyph>
<glyph name="parenleft" format="1">
  <advance width="442"/>
  <unicode hex="0028"/>
  <outline>
    <contour>
      <point x="410" y="-179" type="line"/>
      <point x="212" y="-142"/>
      <point x="40" y="15"/>
      <point x="40" y="281" type="curve" smooth="yes"/>
      <point x="40" y="547"/>
      <point x="212" y="705"/>
      <point x="410" y="742" type="curve"/>
      <point x="410" y="591" type="line"/>
      <point x="322" y="521"/>
      <point x="284" y="429"/>
      <point x="284" y="282" type="curve" smooth="yes"/>
      <point x="284" y="134"/>
      <point x="322" y="42"/>
      <point x="410" y="-28" type="curve"/>
    </contour>
  </outline>
</glyph>
<glyph name="parenright" format="1">
  <advance width="442"/>
  <unicode hex="0029"/>
  <outline>
    <contour>
      <point x="402" y="281" type="curve" smooth="yes"/>
      <point x="402" y="15"/>
      <point x="230" y="-142"/>
      <point x="32" y="-179" type="curve"/>
      <point x="32" y="-28" type="line"/>
      <point x="120" y="42"/>
      <point x="158" y="134"/>
      <point x="158" y="282" type="curve" smooth="yes"/>
      <point x="158" y="429"/>
      <point x="120" y="521"/>
      <point x="32" y="591" type="curve"/>
      <point x="32" y="742" type="line"/>
      <point x="230" y="705"/>
      <point x="402" y="547"/>
    </contour>
  </outline>
</glyph>
<glyph name="asterisk" format="1">
  <advance width="462"/>
  <unicode hex="002A"/>
  <outline>
    <contour>
      <point x="446" y="550" type="line"/>
      <point x="334" y="485" type="line"/>
      <point x="386" y="366" type="line"/>
      <point x="328" y="325" type="line"/>
      <point x="231" y="410" type="line"/>
      <point x="134" y="325" type="line"/>
      <point x="76" y="366" type="line"/>
      <point x="128" y="485" type="line"/>
      <point x="16" y="550" type="line"/>
      <point x="38" y="618" type="line"/>
      <point x="167" y="605" type="line"/>
      <point x="197" y="730" type="line"/>
      <point x="265" y="730" type="line"/>
      <point x="295" y="605" type="line"/>
      <point x="424" y="618" type="line"/>
    </contour>
  </outline>
</glyph>
<glyph name="plus" format="1">
  <advance width="562"/>
  <unicode hex="002B"/>
  <outline>
    <contour>
      <point x="527" y="236" type="line"/>
      <point x="378" y="236" type="line"/>
      <point x="378" y="85" type="line"/>
      <point x="184" y="85" type="line"/>
      <point x="184" y="236" type="line"/>
      <point x="35" y="236" type="line"/>
      <point x="35" y="426" type="line"/>
      <point x="184" y="426" type="line"/>
      <point x="184" y="577" type="line"/>
      <point x="378" y="577" type="line"/>
      <point x="378" y="426" type="line"/>
      <point x="527" y="426" type="line"/>
    </contour>
  </outline>
</glyph>
<glyph name="comma" format="1">
  <advance width="300"/>
  <unicode hex="002C"/>
  <outline>
    <contour>
      <point x="263" y="73" type="line" smooth="yes"/>
      <point x="263" y="-29"/>
      <point x="220" y="-103"/>
      <point x="135" y="-160" type="curve"/>
      <point x="5" y="-81" type="line"/>
      <point x="29" y="-46"/>
      <point x="37" y="-5"/>
      <point x="37" y="45" type="curve" smooth="yes"/>
      <point x="37" y="222" type="line"/>
      <point x="263" y="222" type="line"/>
    </contour>
  </outline>
</glyph>
<glyph name="hyphen" format="1">
  <advance width="416"/>
  <unicode hex="002D"/>
  <unicode hex="2010"/>
  <unicode hex="2011"/>
  <outline>
    <contour>
      <point x="388" y="193" type="line"/>
      <point x="28" y="193" type="line"/>
      <point x="28" y="385" type="line"/>
      <point x="388" y="385" type="line"/>
    </contour>
  </outline>
</glyph>
<glyph name="period" format="1">
  <advance width="300"/>
  <unicode hex="002E"/>
  <outline>
    <contour>
      <point x="263" y="0" type="line"/>
      <point x="37" y="0" type="line"/>
      <point x="37" y="222" type="line"/>
      <point x="263" y="222" type="line"/>
    </contour>
  </outline>
</glyph>
<glyph name="slash" format="1">
  <advance width="510"/>
  <unicode hex="002F"/>
  <outline>
    <contour>
      <point x="491" y="730" type="line"/>
      <point x="240" y="0" type="line"/>
      <point x="19" y="0" type="line"/>
      <point x="273" y="730" type="line"/>
    </contour>
  </outline>
</glyph>
<glyph name="zero" format="1">
  <advance width="724"/>
  <unicode hex="0030"/>
  <outline>
    <contour>
      <point x="694" y="365" type="curve" smooth="yes"/>
      <point x="694" y="157"/>
      <point x="570" y="-12"/>
      <point x="362" y="-12" type="curve" smooth="yes"/>
      <point x="154" y="-12"/>
      <point x="30" y="157"/>
      <point x="30" y="365" type="curve" smooth="yes"/>
      <point x="30" y="573"/>
      <point x="154" y="742"/>
      <point x="362" y="742" type="curve" smooth="yes"/>
      <point x="570" y="742"/>
      <point x="694" y="573"/>
    </contour>
    <contour>
      <point x="460" y="365" type="curve" smooth="yes"/>
      <point x="460" y="486"/>
      <point x="426" y="556"/>
      <point x="362" y="556" type="curve" smooth="yes"/>
      <point x="298" y="556"/>
      <point x="264" y="486"/>
      <point x="264" y="365" type="curve" smooth="yes"/>
      <point x="264" y="244"/>
      <point x="298" y="174"/>
      <point x="362" y="174" type="curve" smooth="yes"/>
      <point x="426" y="174"/>
      <point x="460" y="244"/>
    </contour>
  </outline>
</glyph>
<glyph name="one" format="1">
  <advance width="466"/>
  <unicode hex="0031"/>
  <outline>
    <contour>
      <point x="405" y="0" type="line"/>
      <point x="170" y="0" type="line"/>
      <point x="170" y="454" type="line"/>
      <point x="135" y="423"/>
      <point x="80" y="409"/>
      <point x="18" y="405" type="curve"/>
      <point x="18" y="583" type="line"/>
      <point x="102" y="594"/>
      <point x="164" y="622"/>
      <point x="213" y="730" type="curve"/>
      <point x="405" y="730" type="line"/>
    </contour>
  </outline>
</glyph>
<glyph name="two" format="1">
  <advance width="618"/>
  <unicode hex="0032"/>
  <outline>
    <contour>
      <point x="584" y="523" type="curve" smooth="yes"/>
      <point x="584" y="438"/>
      <point x="549" y="374"/>
      <point x="490" y="307" type="curve" smooth="yes"/>
      <point x="384" y="185" type="line"/>
      <point x="581" y="185" type="line"/>
      <point x="581" y="0" type="line"/>
      <point x="6" y="0" type="line"/>
      <point x="306" y="400" type="line" smooth="yes"/>
      <point x="335" y="439"/>
      <point x="353" y="469"/>
      <point x="353" y="498" type="curve" smooth="yes"/>
      <point x="353" y="535"/>
      <point x="333" y="555"/>
      <point x="301" y="555" type="curve" smooth="yes"/>
      <point x="265" y="555"/>
      <point x="240" y="531"/>
      <point x="240" y="468" type="curve" smooth="yes"/>
      <point x="240" y="451" type="line"/>
      <point x="28" y="451" type="line"/>
      <point x="28" y="463" type="line" smooth="yes"/>
      <point x="28" y="653"/>
      <point x="138" y="742"/>
      <point x="307" y="742" type="curve" smooth="yes"/>
      <point x="486" y="742"/>
      <point x="584" y="655"/>
    </contour>
  </outline>
</glyph>
<glyph name="three" format="1">
  <advance width="600"/>
  <unicode hex="0033"/>
  <outline>
    <contour>
      <point x="572" y="225" type="curve" smooth="yes"/>
      <point x="572" y="80"/>
      <point x="457" y="-12"/>
      <point x="285" y="-12" type="curve" smooth="yes"/>
      <point x="171" y="-12"/>
      <point x="67" y="35"/>
      <point x="6" y="107" type="curve"/>
      <point x="116" y="244" type="line"/>
      <point x="159" y="198"/>
      <point x="213" y="169"/>
      <point x="263" y="169" type="curve" smooth="yes"/>
      <point x="308" y="169"/>
      <point x="342" y="191"/>
      <point x="342" y="232" type="curve" smooth="yes"/>
      <point x="342" y="273"/>
      <point x="308" y="295"/>
      <point x="245" y="295" type="curve" smooth="yes"/>
      <point x="202" y="295" type="line"/>
      <point x="202" y="451" type="line"/>
      <point x="244" y="451" type="line" smooth="yes"/>
      <point x="292" y="451"/>
      <point x="324" y="472"/>
      <point x="324" y="510" type="curve" smooth="yes"/>
      <point x="324" y="541"/>
      <point x="289" y="561"/>
      <point x="250" y="561" type="curve" smooth="yes"/>
      <point x="213" y="561"/>
      <point x="171" y="541"/>
      <point x="131" y="503" type="curve"/>
      <point x="36" y="653" type="line"/>
      <point x="110" y="715"/>
      <point x="189" y="742"/>
      <point x="285" y="742" type="curve" smooth="yes"/>
      <point x="429" y="742"/>
      <point x="554" y="672"/>
      <point x="554" y="544" type="curve" smooth="yes"/>
      <point x="554" y="458"/>
      <point x="508" y="419"/>
      <point x="460" y="388" type="curve"/>
      <point x="523" y="362"/>
      <point x="572" y="311"/>
    </contour>
  </outline>
</glyph>
<glyph name="four" format="1">
  <advance width="660"/>
  <unicode hex="0034"/>
  <outline>
    <contour>
      <point x="646" y="153" type="line"/>
      <point x="562" y="153" type="line"/>
      <point x="562" y="0" type="line"/>
      <point x="342" y="0" type="line"/>
      <point x="342" y="153" type="line"/>
      <point x="10" y="153" type="line"/>
      <point x="10" y="287" type="line"/>
      <point x="329" y="730" type="line"/>
      <point x="562" y="730" type="line"/>
      <point x="562" y="308" type="line"/>
      <point x="646" y="308" type="line"/>
    </contour>
    <contour>
      <point x="342" y="308" type="line"/>
      <point x="342" y="494" type="line"/>
      <point x="210" y="308" type="line"/>
    </contour>
  </outline>
</glyph>
<glyph name="five" format="1">
  <advance width="610"/>
  <unicode hex="0035"/>
  <outline>
    <contour>
      <point x="586" y="258" type="curve" smooth="yes"/>
      <point x="586" y="101"/>
      <point x="466" y="-11"/>
      <point x="287" y="-11" type="curve" smooth="yes"/>
      <point x="161" y="-11"/>
      <point x="77" y="33"/>
      <point x="11" y="94" type="curve"/>
      <point x="119" y="238" type="line"/>
      <point x="164" y="199"/>
      <point x="216" y="171"/>
      <point x="264" y="171" type="curve" smooth="yes"/>
      <point x="321" y="171"/>
      <point x="360" y="199"/>
      <point x="360" y="256" type="curve" smooth="yes"/>
      <point x="360" y="305"/>
      <point x="325" y="328"/>
      <point x="269" y="328" type="curve" smooth="yes"/>
      <point x="227" y="328"/>
      <point x="192" y="312"/>
      <point x="151" y="282" type="curve"/>
      <point x="42" y="339" type="line"/>
      <point x="81" y="730" type="line"/>
      <point x="534" y="730" type="line"/>
      <point x="534" y="550" type="line"/>
      <point x="247" y="550" type="line"/>
      <point x="239" y="465" type="line"/>
      <point x="277" y="484"/>
      <point x="307" y="493"/>
      <point x="350" y="493" type="curve" smooth="yes"/>
      <point x="471" y="493"/>
      <point x="586" y="428"/>
    </contour>
  </outline>
</glyph>
<glyph name="six" format="1">
  <advance width="676"/>
  <unicode hex="0036"/>
  <outline>
    <contour>
      <point x="657" y="251" type="curve" smooth="yes"/>
      <point x="657" y="89"/>
      <point x="513" y="-12"/>
      <point x="342" y="-12" type="curve" smooth="yes"/>
      <point x="152" y="-12"/>
      <point x="28" y="106"/>
      <point x="28" y="294" type="curve" smooth="yes"/>
      <point x="28" y="490"/>
      <point x="178" y="662"/>
      <point x="355" y="758" type="curve"/>
      <point x="510" y="621" type="line"/>
      <point x="416" y="581"/>
      <point x="319" y="508"/>
      <point x="288" y="451" type="curve"/>
      <point x="328" y="477"/>
      <point x="361" y="486"/>
      <point x="416" y="486" type="curve" smooth="yes"/>
      <point x="536" y="486"/>
      <point x="657" y="404"/>
    </contour>
    <contour>
      <point x="427" y="246" type="curve" smooth="yes"/>
      <point x="427" y="292"/>
      <point x="390" y="330"/>
      <point x="341" y="330" type="curve" smooth="yes"/>
      <point x="290" y="330"/>
      <point x="256" y="291"/>
      <point x="256" y="246" type="curve" smooth="yes"/>
      <point x="256" y="196"/>
      <point x="289" y="159"/>
      <point x="341" y="159" type="curve" smooth="yes"/>
      <point x="392" y="159"/>
      <point x="427" y="196"/>
    </contour>
  </outline>
</glyph>
<glyph name="seven" format="1">
  <advance width="663"/>
  <unicode hex="0037"/>
  <outline>
    <contour>
      <point x="661" y="730" type="line"/>
      <point x="322" y="0" type="line"/>
      <point x="61" y="0" type="line"/>
      <point x="328" y="542" type="line"/>
      <point x="48" y="542" type="line"/>
      <point x="48" y="730" type="line"/>
    </contour>
  </outline>
</glyph>
<glyph name="eight" format="1">
  <advance width="670"/>
  <unicode hex="0038"/>
  <outline>
    <contour>
      <point x="646" y="211" type="curve" smooth="yes"/>
      <point x="646" y="71"/>
      <point x="513" y="-12"/>
      <point x="335" y="-12" type="curve" smooth="yes"/>
      <point x="157" y="-12"/>
      <point x="24" y="71"/>
      <point x="24" y="211" type="curve" smooth="yes"/>
      <point x="24" y="300"/>
      <point x="72" y="357"/>
      <point x="150" y="393" type="curve"/>
      <point x="95" y="427"/>
      <point x="57" y="467"/>
      <point x="57" y="541" type="curve" smooth="yes"/>
      <point x="57" y="656"/>
      <point x="157" y="742"/>
      <point x="335" y="742" type="curve" smooth="yes"/>
      <point x="513" y="742"/>
      <point x="613" y="656"/>
      <point x="613" y="541" type="curve" smooth="yes"/>
      <point x="613" y="467"/>
      <point x="575" y="427"/>
      <point x="520" y="393" type="curve"/>
      <point x="598" y="357"/>
      <point x="646" y="300"/>
    </contour>
    <contour>
      <point x="407" y="524" type="curve" smooth="yes"/>
      <point x="407" y="563"/>
      <point x="377" y="587"/>
      <point x="335" y="587" type="curve" smooth="yes"/>
      <point x="293" y="587"/>
      <point x="263" y="563"/>
      <point x="263" y="524" type="curve" smooth="yes"/>
      <point x="263" y="482"/>
      <point x="290" y="456"/>
      <point x="335" y="456" type="curve" smooth="yes"/>
      <point x="380" y="456"/>
      <point x="407" y="482"/>
    </contour>
    <contour>
      <point x="435" y="231" type="curve" smooth="yes"/>
      <point x="435" y="279"/>
      <point x="392" y="306"/>
      <point x="335" y="306" type="curve" smooth="yes"/>
      <point x="278" y="306"/>
      <point x="235" y="279"/>
      <point x="235" y="231" type="curve" smooth="yes"/>
      <point x="235" y="184"/>
      <point x="278" y="150"/>
      <point x="335" y="150" type="curve" smooth="yes"/>
      <point x="392" y="150"/>
      <point x="435" y="184"/>
    </contour>
  </outline>
</glyph>
<glyph name="nine" format="1">
  <advance width="676"/>
  <unicode hex="0039"/>
  <outline>
    <contour>
      <point x="648" y="436" type="curve" smooth="yes"/>
      <point x="648" y="240"/>
      <point x="498" y="68"/>
      <point x="321" y="-28" type="curve"/>
      <point x="166" y="109" type="line"/>
      <point x="260" y="149"/>
      <point x="357" y="222"/>
      <point x="388" y="279" type="curve"/>
      <point x="348" y="253"/>
      <point x="315" y="244"/>
      <point x="260" y="244" type="curve" smooth="yes"/>
      <point x="140" y="244"/>
      <point x="19" y="326"/>
      <point x="19" y="479" type="curve" smooth="yes"/>
      <point x="19" y="641"/>
      <point x="163" y="742"/>
      <point x="334" y="742" type="curve" smooth="yes"/>
      <point x="524" y="742"/>
      <point x="648" y="624"/>
    </contour>
    <contour>
      <point x="420" y="484" type="curve" smooth="yes"/>
      <point x="420" y="534"/>
      <point x="387" y="571"/>
      <point x="335" y="571" type="curve" smooth="yes"/>
      <point x="284" y="571"/>
      <point x="249" y="534"/>
      <point x="249" y="484" type="curve" smooth="yes"/>
      <point x="249" y="438"/>
      <point x="286" y="400"/>
      <point x="335" y="400" type="curve" smooth="yes"/>
      <point x="386" y="400"/>
      <point x="420" y="439"/>
    </contour>
  </outline>
</glyph>
<glyph name="colon" format="1">
  <advance width="300"/>
  <unicode hex="003A"/>
  <outline>
    <contour>
      <point x="263" y="262" type="line"/>
      <point x="37" y="262" type="line"/>
      <point x="37" y="461" type="line"/>
      <point x="263" y="461" type="line"/>
    </contour>
    <contour>
      <point x="263" y="0" type="line"/>
      <point x="37" y="0" type="line"/>
      <point x="37" y="199" type="line"/>
      <point x="263" y="199" type="line"/>
    </contour>
  </outline>
</glyph>
<glyph name="semicolon" format="1">
  <advance width="300"/>
  <unicode hex="003B"/>
  <outline>
    <contour>
      <point x="263" y="262" type="line"/>
      <point x="37" y="262" type="line"/>
      <point x="37" y="461" type="line"/>
      <point x="263" y="461" type="line"/>
    </contour>
    <contour>
      <point x="263" y="73" type="line" smooth="yes"/>
      <point x="263" y="-29"/>
      <point x="220" y="-103"/>
      <point x="135" y="-160" type="curve"/>
      <point x="5" y="-81" type="line"/>
      <point x="29" y="-46"/>
      <point x="37" y="-5"/>
      <point x="37" y="45" type="curve" smooth="yes"/>
      <point x="37" y="199" type="line"/>
      <point x="263" y="199" type="line"/>
    </contour>
  </outline>
</glyph>
<glyph name="less" format="1">
  <advance width="480"/>
  <unicode hex="003C"/>
  <outline>
    <contour>
      <point x="419" y="47" type="line"/>
      <point x="43" y="242" type="line"/>
      <point x="43" y="407" type="line"/>
      <point x="419" y="600" type="line"/>
      <point x="419" y="410" type="line"/>
      <point x="228" y="325" type="line"/>
      <point x="419" y="239" type="line"/>
    </contour>
  </outline>
</glyph>
<glyph name="equal" format="1">
  <advance width="562"/>
  <unicode hex="003D"/>
  <outline>
    <contour>
      <point x="517" y="373" type="line"/>
      <point x="45" y="373" type="line"/>
      <point x="45" y="548" type="line"/>
      <point x="517" y="548" type="line"/>
    </contour>
    <contour>
      <point x="517" y="118" type="line"/>
      <point x="45" y="118" type="line"/>
      <point x="45" y="293" type="line"/>
      <point x="517" y="293" type="line"/>
    </contour>
  </outline>
</glyph>
<glyph name="greater" format="1">
  <advance width="480"/>
  <unicode hex="003E"/>
  <outline>
    <contour>
      <point x="437" y="240" type="line"/>
      <point x="61" y="47" type="line"/>
      <point x="61" y="237" type="line"/>
      <point x="252" y="322" type="line"/>
      <point x="61" y="408" type="line"/>
      <point x="61" y="600" type="line"/>
      <point x="437" y="405" type="line"/>
    </contour>
  </outline>
</glyph>
<glyph name="question" format="1">
  <advance width="500"/>
  <unicode hex="003F"/>
  <outline>
    <contour>
      <point x="487" y="567" type="curve" smooth="yes"/>
      <point x="487" y="494"/>
      <point x="463" y="457"/>
      <point x="402" y="389" type="curve" smooth="yes"/>
      <point x="355" y="337"/>
      <point x="337" y="310"/>
      <point x="337" y="271" type="curve" smooth="yes"/>
      <point x="337" y="267" type="line"/>
      <point x="137" y="267" type="line"/>
      <point x="137" y="281" type="line" smooth="yes"/>
      <point x="137" y="342"/>
      <point x="152" y="391"/>
      <point x="194" y="440" type="curve" smooth="yes"/>
      <point x="244" y="498"/>
      <point x="250" y="509"/>
      <point x="250" y="527" type="curve" smooth="yes"/>
      <point x="250" y="544"/>
      <point x="238" y="554"/>
      <point x="216" y="554" type="curve" smooth="yes"/>
      <point x="191" y="554"/>
      <point x="151" y="532"/>
      <point x="104" y="486" type="curve"/>
      <point x="2" y="650" type="line"/>
      <point x="73" y="708"/>
      <point x="146" y="741"/>
      <point x="254" y="741" type="curve" smooth="yes"/>
      <point x="401" y="741"/>
      <point x="487" y="675"/>
    </contour>
    <contour>
      <point x="355" y="0" type="line"/>
      <point x="119" y="0" type="line"/>
      <point x="119" y="204" type="line"/>
      <point x="355" y="204" type="line"/>
    </contour>
  </outline>
</glyph>
<glyph name="A" format="1">
  <advance width="780"/>
  <unicode hex="0041"/>
  <outline>
    <contour>
      <point x="775" y="0" type="line"/>
      <point x="530" y="0" type="line"/>
      <point x="491" y="133" type="line"/>
      <point x="277" y="133" type="line"/>
      <point x="238" y="0" type="line"/>
      <point x="5" y="0" type="line"/>
      <point x="258" y="730" type="line"/>
      <point x="522" y="730" type="line"/>
    </contour>
    <contour>
      <point x="439" y="309" type="line"/>
      <point x="384" y="494" type="line"/>
      <point x="329" y="309" type="line"/>
    </contour>
  </outline>
</glyph>
<glyph name="B" format="1">
  <advance width="690"/>
  <unicode hex="0042"/>
  <outline>
    <contour>
      <point x="670" y="207" type="curve" smooth="yes"/>
      <point x="670" y="76"/>
      <point x="566" y="0"/>
      <point x="402" y="0" type="curve" smooth="yes"/>
      <point x="59" y="0" type="line"/>
      <point x="59" y="730" type="line"/>
      <point x="378" y="730" type="line" smooth="yes"/>
      <point x="531" y="730"/>
      <point x="632" y="657"/>
      <point x="632" y="534" type="curve" smooth="yes"/>
      <point x="632" y="461"/>
      <point x="585" y="402"/>
      <point x="522" y="378" type="curve"/>
      <point x="606" y="366"/>
      <point x="670" y="291"/>
    </contour>
    <contour>
      <point x="424" y="502" type="curve" smooth="yes"/>
      <point x="424" y="551"/>
      <point x="388" y="567"/>
      <point x="324" y="567" type="curve" smooth="yes"/>
      <point x="287" y="567" type="line"/>
      <point x="287" y="431" type="line"/>
      <point x="324" y="431" type="line" smooth="yes"/>
      <point x="390" y="431"/>
      <point x="424" y="454"/>
    </contour>
    <contour>
      <point x="454" y="234" type="curve" smooth="yes"/>
      <point x="454" y="278"/>
      <point x="421" y="299"/>
      <point x="361" y="299" type="curve" smooth="yes"/>
      <point x="287" y="299" type="line"/>
      <point x="287" y="163" type="line"/>
      <point x="361" y="163" type="line" smooth="yes"/>
      <point x="429" y="163"/>
      <point x="454" y="189"/>
    </contour>
  </outline>
</glyph>
<glyph name="C" format="1">
  <advance width="708"/>
  <unicode hex="0043"/>
  <outline>
    <contour>
      <point x="687" y="92" type="line"/>
      <point x="617" y="31"/>
      <point x="538" y="-12"/>
      <point x="410" y="-12" type="curve" smooth="yes"/>
      <point x="188" y="-12"/>
      <point x="29" y="144"/>
      <point x="29" y="362" type="curve" smooth="yes"/>
      <point x="29" y="580"/>
      <point x="194" y="742"/>
      <point x="414" y="742" type="curve" smooth="yes"/>
      <point x="531" y="742"/>
      <point x="609" y="692"/>
      <point x="672" y="638" type="curve"/>
      <point x="552" y="475" type="line"/>
      <point x="511" y="515"/>
      <point x="472" y="543"/>
      <point x="409" y="543" type="curve" smooth="yes"/>
      <point x="328" y="543"/>
      <point x="268" y="473"/>
      <point x="268" y="368" type="curve" smooth="yes"/>
      <point x="268" y="263"/>
      <point x="326" y="187"/>
      <point x="423" y="187" type="curve" smooth="yes"/>
      <point x="477" y="187"/>
      <point x="527" y="211"/>
      <point x="570" y="251" type="curve"/>
    </contour>
  </outline>
</glyph>
<glyph name="D" format="1">
  <advance width="774"/>
  <unicode hex="0044"/>
  <outline>
    <contour>
      <point x="745" y="366" type="curve" smooth="yes"/>
      <point x="745" y="125"/>
      <point x="555" y="0"/>
      <point x="331" y="0" type="curve" smooth="yes"/>
      <point x="59" y="0" type="line"/>
      <point x="59" y="730" type="line"/>
      <point x="331" y="730" type="line" smooth="yes"/>
      <point x="571" y="730"/>
      <point x="745" y="602"/>
    </contour>
    <contour>
      <point x="505" y="366" type="curve" smooth="yes"/>
      <point x="505" y="476"/>
      <point x="434" y="539"/>
      <point x="331" y="539" type="curve" smooth="yes"/>
      <point x="293" y="539" type="line"/>
      <point x="293" y="191" type="line"/>
      <point x="331" y="191" type="line" smooth="yes"/>
      <point x="441" y="191"/>
      <point x="505" y="261"/>
    </contour>
  </outline>
</glyph>
<glyph name="E" format="1">
  <advance width="560"/>
  <unicode hex="0045"/>
  <outline>
    <contour>
      <point x="515" y="0" type="line"/>
      <point x="59" y="0" type="line"/>
      <point x="59" y="730" type="line"/>
      <point x="505" y="730" type="line"/>
      <point x="505" y="546" type="line"/>
      <point x="293" y="546" type="line"/>
      <point x="293" y="455" type="line"/>
      <point x="471" y="455" type="line"/>
      <point x="471" y="273" type="line"/>
      <point x="293" y="273" type="line"/>
      <point x="293" y="184" type="line"/>
      <point x="515" y="184" type="line"/>
    </contour>
  </outline>
</glyph>
<glyph name="F" format="1">
  <advance width="531"/>
  <unicode hex="0046"/>
  <outline>
    <contour>
      <point x="488" y="544" type="line"/>
      <point x="293" y="544" type="line"/>
      <point x="293" y="441" type="line"/>
      <point x="473" y="441" type="line"/>
      <point x="473" y="257" type="line"/>
      <point x="293" y="257" type="line"/>
      <point x="293" y="0" type="line"/>
      <point x="59" y="0" type="line"/>
      <point x="59" y="730" type="line"/>
      <point x="488" y="730" type="line"/>
    </contour>
  </outline>
</glyph>
<glyph name="G" format="1">
  <advance width="813"/>
  <unicode hex="0047"/>
  <outline>
    <contour>
      <point x="788" y="424" type="line"/>
      <point x="788" y="127"/>
      <point x="637" y="-12"/>
      <point x="410" y="-12" type="curve" smooth="yes"/>
      <point x="188" y="-12"/>
      <point x="29" y="144"/>
      <point x="29" y="362" type="curve" smooth="yes"/>
      <point x="29" y="580"/>
      <point x="194" y="742"/>
      <point x="414" y="742" type="curve" smooth="yes"/>
      <point x="558" y="742"/>
      <point x="640" y="690"/>
      <point x="698" y="626" type="curve"/>
      <point x="552" y="480" type="line"/>
      <point x="511" y="520"/>
      <point x="472" y="543"/>
      <point x="409" y="543" type="curve" smooth="yes"/>
      <point x="328" y="543"/>
      <point x="268" y="473"/>
      <point x="268" y="368" type="curve" smooth="yes"/>
      <point x="268" y="235"/>
      <point x="327" y="170"/>
      <point x="422" y="170" type="curve" smooth="yes"/>
      <point x="493" y="170"/>
      <point x="535" y="203"/>
      <point x="558" y="251" type="curve"/>
      <point x="397" y="251" type="line"/>
      <point x="397" y="424" type="line"/>
    </contour>
  </outline>
</glyph>
<glyph name="H" format="1">
  <advance width="790"/>
  <unicode hex="0048"/>
  <outline>
    <contour>
      <point x="731" y="0" type="line"/>
      <point x="487" y="0" type="line"/>
      <point x="487" y="255" type="line"/>
      <point x="303" y="255" type="line"/>
      <point x="303" y="0" type="line"/>
      <point x="59" y="0" type="line"/>
      <point x="59" y="730" type="line"/>
      <point x="303" y="730" type="line"/>
      <point x="303" y="461" type="line"/>
      <point x="487" y="461" type="line"/>
      <point x="487" y="730" type="line"/>
      <point x="731" y="730" type="line"/>
    </contour>
  </outline>
</glyph>
<glyph name="I" format="1">
  <advance width="366"/>
  <unicode hex="0049"/>
  <outline>
    <contour>
      <point x="305" y="0" type="line"/>
      <point x="61" y="0" type="line"/>
      <point x="61" y="730" type="line"/>
      <point x="305" y="730" type="line"/>
    </contour>
  </outline>
</glyph>
<glyph name="J" format="1">
  <advance width="488"/>
  <unicode hex="004A"/>
  <outline>
    <contour>
      <point x="436" y="289" type="line" smooth="yes"/>
      <point x="436" y="93"/>
      <point x="313" y="0"/>
      <point x="118" y="0" type="curve" smooth="yes"/>
      <point x="25" y="0" type="line"/>
      <point x="25" y="190" type="line"/>
      <point x="72" y="190" type="line" smooth="yes"/>
      <point x="159" y="190"/>
      <point x="192" y="228"/>
      <point x="192" y="326" type="curve" smooth="yes"/>
      <point x="192" y="730" type="line"/>
      <point x="436" y="730" type="line"/>
    </contour>
  </outline>
</glyph>
<glyph name="K" format="1">
  <advance width="762"/>
  <unicode hex="004B"/>
  <outline>
    <contour>
      <point x="763" y="0" type="line"/>
      <point x="483" y="0" type="line"/>
      <point x="334" y="265" type="line"/>
      <point x="303" y="228" type="line"/>
      <point x="303" y="0" type="line"/>
      <point x="59" y="0" type="line"/>
      <point x="59" y="730" type="line"/>
      <point x="303" y="730" type="line"/>
      <point x="303" y="517" type="line"/>
      <point x="465" y="730" type="line"/>
      <point x="750" y="730" type="line"/>
      <point x="503" y="436" type="line"/>
    </contour>
  </outline>
</glyph>
<glyph name="L" format="1">
  <advance width="561"/>
  <unicode hex="004C"/>
  <outline>
    <contour>
      <point x="532" y="0" type="line"/>
      <point x="59" y="0" type="line"/>
      <point x="59" y="730" type="line"/>
      <point x="293" y="730" type="line"/>
      <point x="293" y="186" type="line"/>
      <point x="532" y="186" type="line"/>
    </contour>
  </outline>
</glyph>
<glyph name="M" format="1">
  <advance width="932"/>
  <unicode hex="004D"/>
  <outline>
    <contour>
      <point x="873" y="0" type="line"/>
      <point x="629" y="0" type="line"/>
      <point x="629" y="356" type="line"/>
      <point x="516" y="144" type="line"/>
      <point x="405" y="144" type="line"/>
      <point x="289" y="356" type="line"/>
      <point x="289" y="0" type="line"/>
      <point x="59" y="0" type="line"/>
      <point x="59" y="730" type="line"/>
      <point x="296" y="730" type="line"/>
      <point x="462" y="439" type="line"/>
      <point x="616" y="730" type="line"/>
      <point x="873" y="730" type="line"/>
    </contour>
  </outline>
</glyph>
<glyph name="N" format="1">
  <advance width="810"/>
  <unicode hex="004E"/>
  <outline>
    <contour>
      <point x="751" y="0" type="line"/>
      <point x="562" y="0" type="line"/>
      <point x="289" y="337" type="line"/>
      <point x="289" y="0" type="line"/>
      <point x="59" y="0" type="line"/>
      <point x="59" y="730" type="line"/>
      <point x="268" y="730" type="line"/>
      <point x="521" y="417" type="line"/>
      <point x="521" y="730" type="line"/>
      <point x="751" y="730" type="line"/>
    </contour>
  </outline>
</glyph>
<glyph name="O" format="1">
  <advance width="844"/>
  <unicode hex="004F"/>
  <outline>
    <contour>
      <point x="815" y="366" type="curve" smooth="yes"/>
      <point x="815" y="148"/>
      <point x="650" y="-12"/>
      <point x="421" y="-12" type="curve" smooth="yes"/>
      <point x="192" y="-12"/>
      <point x="29" y="146"/>
      <point x="29" y="364" type="curve" smooth="yes"/>
      <point x="29" y="582"/>
      <point x="194" y="742"/>
      <point x="423" y="742" type="curve" smooth="yes"/>
      <point x="652" y="742"/>
      <point x="815" y="584"/>
    </contour>
    <contour>
      <point x="576" y="364" type="curve" smooth="yes"/>
      <point x="576" y="469"/>
      <point x="510" y="548"/>
      <point x="421" y="548" type="curve" smooth="yes"/>
      <point x="332" y="548"/>
      <point x="268" y="471"/>
      <point x="268" y="366" type="curve" smooth="yes"/>
      <point x="268" y="261"/>
      <point x="334" y="182"/>
      <point x="423" y="182" type="curve" smooth="yes"/>
      <point x="512" y="182"/>
      <point x="576" y="259"/>
    </contour>
  </outline>
</glyph>
<glyph name="P" format="1">
  <advance width="662"/>
  <unicode hex="0050"/>
  <outline>
    <contour>
      <point x="647" y="496" type="curve" smooth="yes"/>
      <point x="647" y="345"/>
      <point x="544" y="250"/>
      <point x="376" y="250" type="curve" smooth="yes"/>
      <point x="298" y="250" type="line"/>
      <point x="298" y="0" type="line"/>
      <point x="59" y="0" type="line"/>
      <point x="59" y="730" type="line"/>
      <point x="376" y="730" type="line" smooth="yes"/>
      <point x="542" y="730"/>
      <point x="647" y="646"/>
    </contour>
    <contour>
      <point x="421" y="493" type="curve" smooth="yes"/>
      <point x="421" y="539"/>
      <point x="394" y="556"/>
      <point x="344" y="556" type="curve" smooth="yes"/>
      <point x="296" y="556" type="line"/>
      <point x="296" y="428" type="line"/>
      <point x="344" y="428" type="line" smooth="yes"/>
      <point x="395" y="428"/>
      <point x="421" y="450"/>
    </contour>
  </outline>
</glyph>
<glyph name="Q" format="1">
  <advance width="844"/>
  <unicode hex="0051"/>
  <outline>
    <contour>
      <point x="834" y="137" type="curve"/>
      <point x="744" y="-18" type="line"/>
      <point x="705" y="-8"/>
      <point x="663" y="11"/>
      <point x="622" y="36" type="curve"/>
      <point x="564" y="5"/>
      <point x="496" y="-12"/>
      <point x="421" y="-12" type="curve" smooth="yes"/>
      <point x="192" y="-12"/>
      <point x="29" y="146"/>
      <point x="29" y="364" type="curve" smooth="yes"/>
      <point x="29" y="582"/>
      <point x="194" y="742"/>
      <point x="423" y="742" type="curve" smooth="yes"/>
      <point x="652" y="742"/>
      <point x="815" y="584"/>
      <point x="815" y="366" type="curve" smooth="yes"/>
      <point x="815" y="289"/>
      <point x="794" y="219"/>
      <point x="757" y="161" type="curve"/>
      <point x="784" y="149"/>
      <point x="810" y="141"/>
    </contour>
    <contour>
      <point x="586" y="359" type="curve" smooth="yes"/>
      <point x="586" y="467"/>
      <point x="518" y="548"/>
      <point x="426" y="548" type="curve" smooth="yes"/>
      <point x="334" y="548"/>
      <point x="268" y="469"/>
      <point x="268" y="361" type="curve" smooth="yes"/>
      <point x="268" y="253"/>
      <point x="336" y="172"/>
      <point x="428" y="172" type="curve" smooth="yes"/>
      <point x="440" y="172"/>
      <point x="451" y="173"/>
      <point x="461" y="176" type="curve"/>
      <point x="446" y="194"/>
      <point x="434" y="213"/>
      <point x="426" y="230" type="curve"/>
      <point x="540" y="329" type="line"/>
      <point x="549" y="314"/>
      <point x="561" y="299"/>
      <point x="574" y="284" type="curve"/>
      <point x="582" y="307"/>
      <point x="586" y="332"/>
    </contour>
  </outline>
</glyph>
<glyph name="R" format="1">
  <advance width="682"/>
  <unicode hex="0052"/>
  <outline>
    <contour>
      <point x="690" y="0" type="line"/>
      <point x="429" y="0" type="line"/>
      <point x="295" y="259" type="line"/>
      <point x="295" y="0" type="line"/>
      <point x="59" y="0" type="line"/>
      <point x="59" y="730" type="line"/>
      <point x="364" y="730" type="line" smooth="yes"/>
      <point x="537" y="730"/>
      <point x="640" y="651"/>
      <point x="640" y="505" type="curve" smooth="yes"/>
      <point x="640" y="408"/>
      <point x="589" y="334"/>
      <point x="516" y="302" type="curve"/>
    </contour>
    <contour>
      <point x="417" y="487" type="curve" smooth="yes"/>
      <point x="417" y="538"/>
      <point x="387" y="556"/>
      <point x="332" y="556" type="curve" smooth="yes"/>
      <point x="293" y="556" type="line"/>
      <point x="293" y="416" type="line"/>
      <point x="332" y="416" type="line" smooth="yes"/>
      <point x="389" y="416"/>
      <point x="417" y="440"/>
    </contour>
  </outline>
</glyph>
<glyph name="S" format="1">
  <advance width="624"/>
  <unicode hex="0053"/>
  <outline>
    <contour>
      <point x="591" y="232" type="curve" smooth="yes"/>
      <point x="591" y="86"/>
      <point x="481" y="-12"/>
      <point x="305" y="-12" type="curve" smooth="yes"/>
      <point x="186" y="-12"/>
      <point x="83" y="31"/>
      <point x="15" y="90" type="curve"/>
      <point x="112" y="245" type="line"/>
      <point x="180" y="191"/>
      <point x="239" y="166"/>
      <point x="302" y="166" type="curve" smooth="yes"/>
      <point x="337" y="166"/>
      <point x="362" y="181"/>
      <point x="362" y="206" type="curve" smooth="yes"/>
      <point x="362" y="241"/>
      <point x="334" y="254"/>
      <point x="245" y="281" type="curve" smooth="yes"/>
      <point x="112" y="322"/>
      <point x="45" y="379"/>
      <point x="45" y="499" type="curve" smooth="yes"/>
      <point x="45" y="657"/>
      <point x="169" y="742"/>
      <point x="346" y="742" type="curve" smooth="yes"/>
      <point x="441" y="742"/>
      <point x="534" y="707"/>
      <point x="583" y="668" type="curve"/>
      <point x="487" y="509" type="line"/>
      <point x="437" y="545"/>
      <point x="391" y="564"/>
      <point x="337" y="564" type="curve" smooth="yes"/>
      <point x="291" y="564"/>
      <point x="274" y="544"/>
      <point x="274" y="523" type="curve" smooth="yes"/>
      <point x="274" y="500"/>
      <point x="291" y="486"/>
      <point x="387" y="458" type="curve" smooth="yes"/>
      <point x="519" y="420"/>
      <point x="591" y="369"/>
    </contour>
  </outline>
</glyph>
<glyph name="T" format="1">
  <advance width="566"/>
  <unicode hex="0054"/>
  <outline>
    <contour>
      <point x="545" y="544" type="line"/>
      <point x="400" y="544" type="line"/>
      <point x="400" y="0" type="line"/>
      <point x="166" y="0" type="line"/>
      <point x="166" y="544" type="line"/>
      <point x="21" y="544" type="line"/>
      <point x="21" y="730" type="line"/>
      <point x="545" y="730" type="line"/>
    </contour>
  </outline>
</glyph>
<glyph name="U" format="1">
  <advance width="812"/>
  <unicode hex="0055"/>
  <outline>
    <contour>
      <point x="760" y="336" type="line" smooth="yes"/>
      <point x="760" y="92"/>
      <point x="608" y="-12"/>
      <point x="406" y="-12" type="curve" smooth="yes"/>
      <point x="204" y="-12"/>
      <point x="52" y="92"/>
      <point x="52" y="336" type="curve" smooth="yes"/>
      <point x="52" y="730" type="line"/>
      <point x="296" y="730" type="line"/>
      <point x="296" y="311" type="line" smooth="yes"/>
      <point x="296" y="232"/>
      <point x="338" y="182"/>
      <point x="406" y="182" type="curve" smooth="yes"/>
      <point x="474" y="182"/>
      <point x="516" y="232"/>
      <point x="516" y="311" type="curve" smooth="yes"/>
      <point x="516" y="730" type="line"/>
      <point x="760" y="730" type="line"/>
    </contour>
  </outline>
</glyph>
<glyph name="V" format="1">
  <advance width="730"/>
  <unicode hex="0056"/>
  <outline>
    <contour>
      <point x="725" y="730" type="line"/>
      <point x="487" y="0" type="line"/>
      <point x="243" y="0" type="line"/>
      <point x="5" y="730" type="line"/>
      <point x="255" y="730" type="line"/>
      <point x="371" y="276" type="line"/>
      <point x="487" y="730" type="line"/>
    </contour>
  </outline>
</glyph>
<glyph name="W" format="1">
  <advance width="1024"/>
  <unicode hex="0057"/>
  <outline>
    <contour>
      <point x="1017" y="730" type="line"/>
      <point x="835" y="0" type="line"/>
      <point x="592" y="0" type="line"/>
      <point x="512" y="398" type="line"/>
      <point x="432" y="0" type="line"/>
      <point x="189" y="0" type="line"/>
      <point x="7" y="730" type="line"/>
      <point x="270" y="730" type="line"/>
      <point x="330" y="338" type="line"/>
      <point x="403" y="730" type="line"/>
      <point x="641" y="730" type="line"/>
      <point x="714" y="338" type="line"/>
      <point x="774" y="730" type="line"/>
    </contour>
  </outline>
</glyph>
<glyph name="X" format="1">
  <advance width="745"/>
  <unicode hex="0058"/>
  <outline>
    <contour>
      <point x="739" y="0" type="line"/>
      <point x="472" y="0" type="line"/>
      <point x="371" y="186" type="line"/>
      <point x="268" y="0" type="line"/>
      <point x="6" y="0" type="line"/>
      <point x="228" y="381" type="line"/>
      <point x="32" y="730" type="line"/>
      <point x="299" y="730" type="line"/>
      <point x="373" y="588" type="line"/>
      <point x="451" y="730" type="line"/>
      <point x="713" y="730" type="line"/>
      <point x="516" y="391" type="line"/>
    </contour>
  </outline>
</glyph>
<glyph name="Y" format="1">
  <advance width="724"/>
  <unicode hex="0059"/>
  <outline>
    <contour>
      <point x="727" y="730" type="line"/>
      <point x="479" y="273" type="line"/>
      <point x="479" y="0" type="line"/>
      <point x="245" y="0" type="line"/>
      <point x="245" y="273" type="line"/>
      <point x="-3" y="730" type="line"/>
      <point x="256" y="730" type="line"/>
      <point x="367" y="493" type="line"/>
      <point x="478" y="730" type="line"/>
    </contour>
  </outline>
</glyph>
<glyph name="Z" format="1">
  <advance width="702"/>
  <unicode hex="005A"/>
  <outline>
    <contour>
      <point x="660" y="730" type="line"/>
      <point x="371" y="181" type="line"/>
      <point x="657" y="181" type="line"/>
      <point x="657" y="0" type="line"/>
      <point x="22" y="0" type="line"/>
      <point x="311" y="549" type="line"/>
      <point x="58" y="549" type="line"/>
      <point x="58" y="730" type="line"/>
    </contour>
  </outline>
</glyph>
<glyph name="bracketleft" format="1">
  <advance width="470"/>
  <unicode hex="005B"/>
  <outline>
    <contour>
      <point x="419" y="-179" type="line"/>
      <point x="65" y="-179" type="line"/>
      <point x="65" y="730" type="line"/>
      <point x="419" y="730" type="line"/>
      <point x="419" y="590" type="line"/>
      <point x="291" y="590" type="line"/>
      <point x="291" y="-39" type="line"/>
      <point x="419" y="-39" type="line"/>
    </contour>
  </outline>
</glyph>
<glyph name="backslash" format="1">
  <advance width="510"/>
  <unicode hex="005C"/>
  <outline>
    <contour>
      <point x="491" y="0" type="line"/>
      <point x="273" y="0" type="line"/>
      <point x="19" y="730" type="line"/>
      <point x="240" y="730" type="line"/>
    </contour>
  </outline>
</glyph>
<glyph name="bracketright" format="1">
  <advance width="470"/>
  <unicode hex="005D"/>
  <outline>
    <contour>
      <point x="405" y="-179" type="line"/>
      <point x="51" y="-179" type="line"/>
      <point x="51" y="-39" type="line"/>
      <point x="179" y="-39" type="line"/>
      <point x="179" y="590" type="line"/>
      <point x="51" y="590" type="line"/>
      <point x="51" y="730" type="line"/>
      <point x="405" y="730" type="line"/>
    </contour>
  </outline>
</glyph>
<glyph name="asciicircum" format="1">
  <advance width="674"/>
  <unicode hex="005E"/>
  <outline>
    <contour>
      <point x="231" y="730" type="line"/>
      <point x="443" y="730" type="line"/>
      <point x="649" y="370" type="line"/>
      <point x="438" y="370" type="line"/>
      <point x="337" y="550" type="line"/>
      <point x="236" y="370" type="line"/>
      <point x="25" y="370" type="line"/>
    </contour>
  </outline>
</glyph>
<glyph name="underscore" format="1">
  <advance width="500"/>
  <unicode hex="005F"/>
  <outline>
    <contour>
      <point x="503" y="-173" type="line"/>
      <point x="-3" y="-173" type="line"/>
      <point x="-3" y="-63" type="line"/>
      <point x="503" y="-63" type="line"/>
    </contour>
  </outline>
</glyph>
<glyph name="grave" format="1">
  <advance width="500"/>
  <unicode hex="0060"/>
  <outline>
    <contour>
      <point x="202" y="498" type="line"/>
      <point x="108" y="675" type="line"/>
      <point x="273" y="675" type="line"/>
      <point x="338" y="498" type="line"/>
    </contour>
  </outline>
</glyph>
<glyph name="a" format="1">
  <advance width="570"/>
  <unicode hex="0061"/>
  <outline>
    <contour>
      <point x="533" y="0" type="line"/>
      <point x="311" y="0" type="line"/>
      <point x="311" y="41" type="line"/>
      <point x="275" y="11"/>
      <point x="234" y="-7"/>
      <point x="168" y="-7" type="curve" smooth="yes"/>
      <point x="89" y="-7"/>
      <point x="19" y="39"/>
      <point x="19" y="121" type="curve" smooth="yes"/>
      <point x="19" y="229"/>
      <point x="120" y="282"/>
      <point x="311" y="289" type="curve"/>
      <point x="311" y="295" type="line" smooth="yes"/>
      <point x="311" y="322"/>
      <point x="294" y="335"/>
      <point x="245" y="335" type="curve" smooth="yes"/>
      <point x="202" y="335"/>
      <point x="149" y="323"/>
      <point x="106" y="301" type="curve"/>
      <point x="57" y="415" type="line"/>
      <point x="122" y="446"/>
      <point x="190" y="464"/>
      <point x="307" y="464" type="curve" smooth="yes"/>
      <point x="454" y="464"/>
      <point x="533" y="413"/>
      <point x="533" y="284" type="curve" smooth="yes"/>
    </contour>
    <contour>
      <point x="314" y="129" type="curve"/>
      <point x="314" y="200" type="line"/>
      <point x="248" y="198"/>
      <point x="222" y="178"/>
      <point x="222" y="146" type="curve" smooth="yes"/>
      <point x="222" y="123"/>
      <point x="242" y="109"/>
      <point x="264" y="109" type="curve" smooth="yes"/>
      <point x="284" y="109"/>
      <point x="302" y="117"/>
    </contour>
  </outline>
</glyph>
<glyph name="c" format="1">
  <advance width="486"/>
  <unicode hex="0063"/>
  <outline>
    <contour>
      <point x="481" y="84" type="line"/>
      <point x="437" y="28"/>
      <point x="375" y="-12"/>
      <point x="285" y="-12" type="curve" smooth="yes"/>
      <point x="138" y="-12"/>
      <point x="20" y="82"/>
      <point x="20" y="229" type="curve" smooth="yes"/>
      <point x="20" y="372"/>
      <point x="141" y="473"/>
      <point x="285" y="473" type="curve" smooth="yes"/>
      <point x="377" y="473"/>
      <point x="434" y="438"/>
      <point x="476" y="385" type="curve"/>
      <point x="347" y="273" type="line"/>
      <point x="332" y="295"/>
      <point x="313" y="310"/>
      <point x="286" y="310" type="curve" smooth="yes"/>
      <point x="247" y="310"/>
      <point x="222" y="276"/>
      <point x="222" y="229" type="curve" smooth="yes"/>
      <point x="222" y="184"/>
      <point x="247" y="151"/>
      <point x="286" y="151" type="curve" smooth="yes"/>
      <point x="313" y="151"/>
      <point x="331" y="164"/>
      <point x="351" y="188" type="curve"/>
    </contour>
  </outline>
</glyph>
<glyph name="d" format="1">
  <advance width="625"/>
  <unicode hex="0064"/>
  <outline>
    <contour>
      <point x="583" y="0" type="line"/>
      <point x="359" y="0" type="line"/>
      <point x="359" y="47" type="line"/>
      <point x="325" y="13"/>
      <point x="283" y="-8"/>
      <point x="228" y="-8" type="curve" smooth="yes"/>
      <point x="102" y="-8"/>
      <point x="20" y="101"/>
      <point x="20" y="230" type="curve" smooth="yes"/>
      <point x="20" y="356"/>
      <point x="102" y="469"/>
      <point x="228" y="469" type="curve" smooth="yes"/>
      <point x="283" y="469"/>
      <point x="325" y="448"/>
      <point x="359" y="414" type="curve"/>
      <point x="359" y="730" type="line"/>
      <point x="583" y="730" type="line"/>
    </contour>
    <contour>
      <point x="370" y="232" type="curve" smooth="yes"/>
      <point x="370" y="277"/>
      <point x="341" y="311"/>
      <point x="298" y="311" type="curve" smooth="yes"/>
      <point x="257" y="311"/>
      <point x="227" y="277"/>
      <point x="227" y="232" type="curve" smooth="yes"/>
      <point x="227" y="187"/>
      <point x="257" y="150"/>
      <point x="298" y="150" type="curve" smooth="yes"/>
      <point x="342" y="150"/>
      <point x="370" y="187"/>
    </contour>
  </outline>
</glyph>
<glyph name="e" format="1">
  <advance width="540"/>
  <unicode hex="0065"/>
  <outline>
    <contour>
      <point x="518" y="191" type="curve"/>
      <point x="214" y="191" type="line"/>
      <point x="230" y="141"/>
      <point x="270" y="122"/>
      <point x="312" y="122" type="curve" smooth="yes"/>
      <point x="363" y="122"/>
      <point x="407" y="137"/>
      <point x="450" y="168" type="curve"/>
      <point x="522" y="64" type="line"/>
      <point x="465" y="18"/>
      <point x="388" y="-12"/>
      <point x="294" y="-12" type="curve" smooth="yes"/>
      <point x="124" y="-12"/>
      <point x="20" y="82"/>
      <point x="20" y="229" type="curve" smooth="yes"/>
      <point x="20" y="372"/>
      <point x="122" y="473"/>
      <point x="263" y="473" type="curve" smooth="yes"/>
      <point x="417" y="473"/>
      <point x="518" y="379"/>
    </contour>
    <contour>
      <point x="324" y="282" type="line"/>
      <point x="324" y="329"/>
      <point x="300" y="357"/>
      <point x="266" y="357" type="curve" smooth="yes"/>
      <point x="239" y="357"/>
      <point x="210" y="334"/>
      <point x="210" y="282" type="curve"/>
    </contour>
  </outline>
</glyph>
<glyph name="f" format="1">
  <advance width="360"/>
  <unicode hex="0066"/>
  <outline>
    <contour>
      <point x="345" y="312" type="line"/>
      <point x="283" y="312" type="line"/>
      <point x="283" y="0" type="line"/>
      <point x="62" y="0" type="line"/>
      <point x="62" y="312" type="line"/>
      <point x="15" y="312" type="line"/>
      <point x="15" y="461" type="line"/>
      <point x="62" y="461" type="line"/>
      <point x="62" y="569" type="line" smooth="yes"/>
      <point x="62" y="665"/>
      <point x="114" y="730"/>
      <point x="214" y="730" type="curve" smooth="yes"/>
      <point x="340" y="730" type="line"/>
      <point x="340" y="574" type="line"/>
      <point x="322" y="574" type="line" smooth="yes"/>
      <point x="292" y="574"/>
      <point x="283" y="553"/>
      <point x="283" y="521" type="curve" smooth="yes"/>
      <point x="283" y="461" type="line"/>
      <point x="345" y="461" type="line"/>
    </contour>
  </outline>
</glyph>
<glyph name="g" format="1">
  <advance width="625"/>
  <unicode hex="0067"/>
  <outline>
    <contour>
      <point x="583" y="44" type="line" smooth="yes"/>
      <point x="583" y="-89"/>
      <point x="504" y="-184"/>
      <point x="319" y="-184" type="curve" smooth="yes"/>
      <point x="212" y="-184"/>
      <point x="123" y="-164"/>
      <point x="56" y="-135" type="curve"/>
      <point x="109" y="-4" type="line"/>
      <point x="158" y="-26"/>
      <point x="219" y="-40"/>
      <point x="272" y="-40" type="curve" smooth="yes"/>
      <point x="336" y="-40"/>
      <point x="359" y="-9"/>
      <point x="359" y="30" type="curve" smooth="yes"/>
      <point x="359" y="68" type="line"/>
      <point x="325" y="36"/>
      <point x="283" y="16"/>
      <point x="228" y="16" type="curve" smooth="yes"/>
      <point x="102" y="16"/>
      <point x="20" y="119"/>
      <point x="20" y="242" type="curve" smooth="yes"/>
      <point x="20" y="362"/>
      <point x="102" y="469"/>
      <point x="228" y="469" type="curve" smooth="yes"/>
      <point x="283" y="469"/>
      <point x="325" y="449"/>
      <point x="359" y="417" type="curve"/>
      <point x="359" y="461" type="line"/>
      <point x="583" y="461" type="line"/>
    </contour>
    <contour>
      <point x="370" y="244" type="curve" smooth="yes"/>
      <point x="370" y="289"/>
      <point x="341" y="323"/>
      <point x="298" y="323" type="curve" smooth="yes"/>
      <point x="257" y="323"/>
      <point x="227" y="289"/>
      <point x="227" y="244" type="curve" smooth="yes"/>
      <point x="227" y="199"/>
      <point x="257" y="162"/>
      <point x="298" y="162" type="curve" smooth="yes"/>
      <point x="342" y="162"/>
      <point x="370" y="199"/>
    </contour>
  </outline>
</glyph>
<glyph name="h" format="1">
  <advance width="610"/>
  <unicode hex="0068"/>
  <outline>
    <contour>
      <point x="573" y="0" type="line"/>
      <point x="349" y="0" type="line"/>
      <point x="349" y="239" type="line" smooth="yes"/>
      <point x="349" y="275"/>
      <point x="340" y="296"/>
      <point x="310" y="296" type="curve" smooth="yes"/>
      <point x="282" y="296"/>
      <point x="266" y="275"/>
      <point x="266" y="242" type="curve" smooth="yes"/>
      <point x="266" y="0" type="line"/>
      <point x="42" y="0" type="line"/>
      <point x="42" y="730" type="line"/>
      <point x="266" y="730" type="line"/>
      <point x="266" y="412" type="line"/>
      <point x="298" y="449"/>
      <point x="346" y="473"/>
      <point x="401" y="473" type="curve" smooth="yes"/>
      <point x="521" y="473"/>
      <point x="573" y="394"/>
      <point x="573" y="293" type="curve" smooth="yes"/>
    </contour>
  </outline>
</glyph>
<glyph name="i" format="1">
  <advance width="312"/>
  <unicode hex="0069"/>
  <outline>
    <contour>
      <point x="270" y="525" type="line"/>
      <point x="42" y="525" type="line"/>
      <point x="42" y="695" type="line"/>
      <point x="270" y="695" type="line"/>
    </contour>
    <contour>
      <point x="268" y="0" type="line"/>
      <point x="44" y="0" type="line"/>
      <point x="44" y="461" type="line"/>
      <point x="268" y="461" type="line"/>
    </contour>
  </outline>
</glyph>
<glyph name="j" format="1">
  <advance width="312"/>
  <unicode hex="006A"/>
  <outline>
    <contour>
      <point x="270" y="525" type="line"/>
      <point x="42" y="525" type="line"/>
      <point x="42" y="695" type="line"/>
      <point x="270" y="695" type="line"/>
    </contour>
    <contour>
      <point x="268" y="-18" type="line" smooth="yes"/>
      <point x="268" y="-114"/>
      <point x="216" y="-179"/>
      <point x="116" y="-179" type="curve" smooth="yes"/>
      <point x="-21" y="-179" type="line"/>
      <point x="-21" y="-23" type="line"/>
      <point x="5" y="-23" type="line" smooth="yes"/>
      <point x="35" y="-23"/>
      <point x="44" y="-2"/>
      <point x="44" y="30" type="curve" smooth="yes"/>
      <point x="44" y="461" type="line"/>
      <point x="268" y="461" type="line"/>
    </contour>
  </outline>
</glyph>
<glyph name="k" format="1">
  <advance width="600"/>
  <unicode hex="006B"/>
  <outline>
    <contour>
      <point x="594" y="461" type="line"/>
      <point x="458" y="276" type="line"/>
      <point x="590" y="0" type="line"/>
      <point x="354" y="0" type="line"/>
      <point x="301" y="117" type="line"/>
      <point x="266" y="74" type="line"/>
      <point x="266" y="0" type="line"/>
      <point x="42" y="0" type="line"/>
      <point x="42" y="730" type="line"/>
      <point x="266" y="730" type="line"/>
      <point x="266" y="311" type="line"/>
      <point x="369" y="461" type="line"/>
    </contour>
  </outline>
</glyph>
<glyph name="m" format="1">
  <advance width="900"/>
  <unicode hex="006D"/>
  <outline>
    <contour>
      <point x="863" y="0" type="line"/>
      <point x="642" y="0" type="line"/>
      <point x="642" y="241" type="line" smooth="yes"/>
      <point x="642" y="276"/>
      <point x="634" y="296"/>
      <point x="605" y="296" type="curve" smooth="yes"/>
      <point x="578" y="296"/>
      <point x="563" y="276"/>
      <point x="563" y="244" type="curve" smooth="yes"/>
      <point x="563" y="0" type="line"/>
      <point x="342" y="0" type="line"/>
      <point x="342" y="241" type="line" smooth="yes"/>
      <point x="342" y="276"/>
      <point x="334" y="296"/>
      <point x="305" y="296" type="curve" smooth="yes"/>
      <point x="278" y="296"/>
      <point x="263" y="276"/>
      <point x="263" y="244" type="curve" smooth="yes"/>
      <point x="263" y="0" type="line"/>
      <point x="42" y="0" type="line"/>
      <point x="42" y="461" type="line"/>
      <point x="263" y="461" type="line"/>
      <point x="263" y="412" type="line"/>
      <point x="295" y="449"/>
      <point x="339" y="473"/>
      <point x="400" y="473" type="curve" smooth="yes"/>
      <point x="460" y="473"/>
      <point x="505" y="447"/>
      <point x="533" y="405" type="curve"/>
      <point x="578" y="450"/>
      <point x="627" y="473"/>
      <point x="690" y="473" type="curve" smooth="yes"/>
      <point x="807" y="473"/>
      <point x="863" y="400"/>
      <point x="863" y="293" type="curve" smooth="yes"/>
    </contour>
  </outline>
</glyph>
<glyph name="o" format="1">
  <advance width="570"/>
  <unicode hex="006F"/>
  <outline>
    <contour>
      <point x="550" y="232" type="curve" smooth="yes"/>
      <point x="550" y="89"/>
      <point x="429" y="-12"/>
      <point x="285" y="-12" type="curve" smooth="yes"/>
      <point x="138" y="-12"/>
      <point x="20" y="82"/>
      <point x="20" y="229" type="curve" smooth="yes"/>
      <point x="20" y="372"/>
      <point x="141" y="473"/>
      <point x="285" y="473" type="curve" smooth="yes"/>
      <point x="432" y="473"/>
      <point x="550" y="379"/>
    </contour>
    <contour>
      <point x="353" y="232" type="curve" smooth="yes"/>
      <point x="353" y="279"/>
      <point x="325" y="315"/>
      <point x="284" y="315" type="curve" smooth="yes"/>
      <point x="245" y="315"/>
      <point x="217" y="278"/>
      <point x="217" y="229" type="curve" smooth="yes"/>
      <point x="217" y="182"/>
      <point x="245" y="146"/>
      <point x="286" y="146" type="curve" smooth="yes"/>
      <point x="325" y="146"/>
      <point x="353" y="183"/>
    </contour>
  </outline>
</glyph>
<glyph name="p" format="1">
  <advance width="625"/>
  <unicode hex="0070"/>
  <outline>
    <contour>
      <point x="605" y="231" type="curve" smooth="yes"/>
      <point x="605" y="105"/>
      <point x="523" y="-8"/>
      <point x="397" y="-8" type="curve" smooth="yes"/>
      <point x="342" y="-8"/>
      <point x="300" y="13"/>
      <point x="266" y="47" type="curve"/>
      <point x="266" y="-179" type="line"/>
      <point x="42" y="-179" type="line"/>
      <point x="42" y="461" type="line"/>
      <point x="266" y="461" type="line"/>
      <point x="266" y="414" type="line"/>
      <point x="300" y="448"/>
      <point x="342" y="469"/>
      <point x="397" y="469" type="curve" smooth="yes"/>
      <point x="523" y="469"/>
      <point x="605" y="360"/>
    </contour>
    <contour>
      <point x="398" y="229" type="curve" smooth="yes"/>
      <point x="398" y="274"/>
      <point x="368" y="311"/>
      <point x="327" y="311" type="curve" smooth="yes"/>
      <point x="283" y="311"/>
      <point x="255" y="274"/>
      <point x="255" y="229" type="curve" smooth="yes"/>
      <point x="255" y="184"/>
      <point x="284" y="150"/>
      <point x="327" y="150" type="curve" smooth="yes"/>
      <point x="368" y="150"/>
      <point x="398" y="184"/>
    </contour>
  </outline>
</glyph>
<glyph name="r" format="1">
  <advance width="508"/>
  <unicode hex="0072"/>
  <outline>
    <contour>
      <point x="504" y="432" type="curve"/>
      <point x="406" y="236" type="line"/>
      <point x="380" y="256"/>
      <point x="363" y="263"/>
      <point x="337" y="263" type="curve" smooth="yes"/>
      <point x="287" y="263"/>
      <point x="266" y="223"/>
      <point x="266" y="177" type="curve" smooth="yes"/>
      <point x="266" y="0" type="line"/>
      <point x="42" y="0" type="line"/>
      <point x="42" y="461" type="line"/>
      <point x="266" y="461" type="line"/>
      <point x="266" y="404" type="line"/>
      <point x="290" y="440"/>
      <point x="334" y="473"/>
      <point x="390" y="473" type="curve" smooth="yes"/>
      <point x="432" y="473"/>
      <point x="470" y="463"/>
    </contour>
  </outline>
</glyph>
<glyph name="s" format="1">
  <advance width="458"/>
  <unicode hex="0073"/>
  <outline>
    <contour>
      <point x="442" y="148" type="curve" smooth="yes"/>
      <point x="442" y="49"/>
      <point x="362" y="-9"/>
      <point x="226" y="-9" type="curve" smooth="yes"/>
      <point x="138" y="-9"/>
      <point x="73" y="6"/>
      <point x="12" y="36" type="curve"/>
      <point x="60" y="151" type="line"/>
      <point x="119" y="125"/>
      <point x="171" y="113"/>
      <point x="228" y="113" type="curve" smooth="yes"/>
      <point x="255" y="113"/>
      <point x="266" y="117"/>
      <point x="266" y="130" type="curve" smooth="yes"/>
      <point x="266" y="145"/>
      <point x="257" y="145"/>
      <point x="185" y="160" type="curve" smooth="yes"/>
      <point x="90" y="179"/>
      <point x="27" y="219"/>
      <point x="27" y="314" type="curve" smooth="yes"/>
      <point x="27" y="414"/>
      <point x="115" y="470"/>
      <point x="239" y="470" type="curve" smooth="yes"/>
      <point x="324" y="470"/>
      <point x="369" y="457"/>
      <point x="428" y="431" type="curve"/>
      <point x="380" y="316" type="line"/>
      <point x="331" y="338"/>
      <point x="287" y="348"/>
      <point x="243" y="348" type="curve" smooth="yes"/>
      <point x="214" y="348"/>
      <point x="203" y="343"/>
      <point x="203" y="331" type="curve" smooth="yes"/>
      <point x="203" y="318"/>
      <point x="212" y="317"/>
      <point x="283" y="302" type="curve" smooth="yes"/>
      <point x="388" y="280"/>
      <point x="442" y="236"/>
    </contour>
  </outline>
</glyph>
<glyph name="t" format="1">
  <advance width="400"/>
  <unicode hex="0074"/>
  <outline>
    <contour>
      <point x="374" y="0" type="line"/>
      <point x="219" y="0" type="line" smooth="yes"/>
      <point x="119" y="0"/>
      <point x="67" y="65"/>
      <point x="67" y="161" type="curve" smooth="yes"/>
      <point x="67" y="312" type="line"/>
      <point x="13" y="312" type="line"/>
      <point x="13" y="461" type="line"/>
      <point x="67" y="461" type="line"/>
      <point x="67" y="640" type="line"/>
      <point x="288" y="640" type="line"/>
      <point x="288" y="461" type="line"/>
      <point x="361" y="461" type="line"/>
      <point x="361" y="312" type="line"/>
      <point x="288" y="312" type="line"/>
      <point x="288" y="209" type="line" smooth="yes"/>
      <point x="288" y="177"/>
      <point x="297" y="156"/>
      <point x="327" y="156" type="curve" smooth="yes"/>
      <point x="374" y="156" type="line"/>
    </contour>
  </outline>
</glyph>
<glyph name="u" format="1">
  <advance width="610"/>
  <unicode hex="0075"/>
  <outline>
    <contour>
      <point x="568" y="0" type="line"/>
      <point x="344" y="0" type="line"/>
      <point x="344" y="49" type="line"/>
      <point x="312" y="12"/>
      <point x="264" y="-12"/>
      <point x="209" y="-12" type="curve" smooth="yes"/>
      <point x="89" y="-12"/>
      <point x="37" y="67"/>
      <point x="37" y="168" type="curve" smooth="yes"/>
      <point x="37" y="461" type="line"/>
      <point x="261" y="461" type="line"/>
      <point x="261" y="222" type="line" smooth="yes"/>
      <point x="261" y="186"/>
      <point x="270" y="165"/>
      <point x="300" y="165" type="curve" smooth="yes"/>
      <point x="328" y="165"/>
      <point x="344" y="186"/>
      <point x="344" y="219" type="curve" smooth="yes"/>
      <point x="344" y="461" type="line"/>
      <point x="568" y="461" type="line"/>
    </contour>
  </outline>
</glyph>
<glyph name="v" format="1">
  <advance width="604"/>
  <unicode hex="0076"/>
  <outline>
    <contour>
      <point x="602" y="461" type="line"/>
      <point x="421" y="0" type="line"/>
      <point x="183" y="0" type="line"/>
      <point x="2" y="461" type="line"/>
      <point x="246" y="461" type="line"/>
      <point x="307" y="226" type="line"/>
      <point x="368" y="461" type="line"/>
    </contour>
  </outline>
</glyph>
<glyph name="w" format="1">
  <advance width="866"/>
  <unicode hex="0077"/>
  <outline>
    <contour>
      <point x="862" y="461" type="line"/>
      <point x="710" y="0" type="line"/>
      <point x="495" y="0" type="line"/>
      <point x="433" y="134" type="line"/>
      <point x="371" y="0" type="line"/>
      <point x="156" y="0" type="line"/>
      <point x="4" y="461" type="line"/>
      <point x="243" y="461" type="line"/>
      <point x="304" y="238" type="line"/>
      <point x="438" y="490" type="line"/>
      <point x="572" y="238" type="line"/>
      <point x="633" y="461" type="line"/>
    </contour>
  </outline>
</glyph>
<glyph name="x" format="1">
  <advance width="562"/>
  <unicode hex="0078"/>
  <outline>
    <contour>
      <point x="556" y="0" type="line"/>
      <point x="328" y="0" type="line"/>
      <point x="278" y="92" type="line"/>
      <point x="226" y="0" type="line"/>
      <point x="6" y="0" type="line"/>
      <point x="155" y="235" type="line"/>
      <point x="16" y="461" type="line"/>
      <point x="244" y="461" type="line"/>
      <point x="283" y="386" type="line"/>
      <point x="326" y="461" type="line"/>
      <point x="546" y="461" type="line"/>
      <point x="406" y="241" type="line"/>
    </contour>
  </outline>
</glyph>
<glyph name="y" format="1">
  <advance width="604"/>
  <unicode hex="0079"/>
  <outline>
    <contour>
      <point x="193" y="-3" type="curve"/>
      <point x="2" y="461" type="line"/>
      <point x="246" y="461" type="line"/>
      <point x="307" y="226" type="line"/>
      <point x="368" y="461" type="line"/>
      <point x="602" y="461" type="line"/>
      <point x="404" y="-44" type="line" smooth="yes"/>
      <point x="367" y="-137"/>
      <point x="305" y="-179"/>
      <point x="196" y="-179" type="curve" smooth="yes"/>
      <point x="89" y="-179" type="line"/>
      <point x="89" y="-23" type="line"/>
      <point x="125" y="-23" type="line" smooth="yes"/>
      <point x="164" y="-23"/>
      <point x="184" y="-15"/>
    </contour>
  </outline>
</glyph>
<glyph name="z" format="1">
  <advance width="541"/>
  <unicode hex="007A"/>
  <outline>
    <contour>
      <point x="535" y="461" type="line"/>
      <point x="334" y="159" type="line"/>
      <point x="518" y="159" type="line"/>
      <point x="518" y="0" type="line"/>
      <point x="0" y="0" type="line"/>
      <point x="201" y="302" type="line"/>
      <point x="34" y="302" type="line"/>
      <point x="34" y="461" type="line"/>
    </contour>
  </outline>
</glyph>
<glyph name="braceleft" format="1">
  <advance width="411"/>
  <unicode hex="007B"/>
  <outline>
    <contour>
      <point x="16" y="357" type="line"/>
      <point x="92" y="371"/>
      <point x="103" y="385"/>
      <point x="103" y="467" type="curve" smooth="yes"/>
      <point x="103" y="626"/>
      <point x="234" y="733"/>
      <point x="391" y="736" type="curve"/>
      <point x="391" y="552" type="line"/>
      <point x="352" y="542"/>
      <point x="334" y="516"/>
      <point x="334" y="481" type="curve" smooth="yes"/>
      <point x="334" y="352"/>
      <point x="320" y="322"/>
      <point x="221" y="278" type="curve"/>
      <point x="321" y="234"/>
      <point x="334" y="204"/>
      <point x="334" y="75" type="curve" smooth="yes"/>
      <point x="334" y="40"/>
      <point x="352" y="14"/>
      <point x="391" y="4" type="curve"/>
      <point x="391" y="-180" type="line"/>
      <point x="234" y="-177"/>
      <point x="103" y="-70"/>
      <point x="103" y="89" type="curve" smooth="yes"/>
      <point x="103" y="171"/>
      <point x="92" y="185"/>
      <point x="16" y="199" type="curve"/>
    </contour>
  </outline>
</glyph>
<glyph name="bar" format="1">
  <advance width="342"/>
  <unicode hex="007C"/>
  <outline>
    <contour>
      <point x="277" y="-179" type="line"/>
      <point x="65" y="-179" type="line"/>
      <point x="65" y="730" type="line"/>
      <point x="277" y="730" type="line"/>
    </contour>
  </outline>
</glyph>
<glyph name="braceright" format="1">
  <advance width="411"/>
  <unicode hex="007D"/>
  <outline>
    <contour>
      <point x="395" y="357" type="curve"/>
      <point x="395" y="199" type="line"/>
      <point x="319" y="185"/>
      <point x="308" y="171"/>
      <point x="308" y="89" type="curve" smooth="yes"/>
      <point x="308" y="-70"/>
      <point x="177" y="-177"/>
      <point x="20" y="-180" type="curve"/>
      <point x="20" y="4" type="line"/>
      <point x="59" y="14"/>
      <point x="77" y="40"/>
      <point x="77" y="75" type="curve" smooth="yes"/>
      <point x="77" y="204"/>
      <point x="90" y="234"/>
      <point x="190" y="278" type="curve"/>
      <point x="91" y="322"/>
      <point x="77" y="352"/>
      <point x="77" y="481" type="curve" smooth="yes"/>
      <point x="77" y="516"/>
      <point x="59" y="542"/>
      <point x="20" y="552" type="curve"/>
      <point x="20" y="736" type="line"/>
      <point x="177" y="733"/>
      <point x="308" y="626"/>
      <point x="308" y="467" type="curve" smooth="yes"/>
      <point x="308" y="385"/>
      <point x="319" y="371"/>
    </contour>
  </outline>
</glyph>
<glyph name="asciitilde" format="1">
  <advance width="610"/>
  <unicode hex="007E"/>
  <outline>
    <contour>
      <point x="442" y="232" type="curve" smooth="yes"/>
      <point x="392" y="232"/>
      <point x="365" y="242"/>
      <point x="323" y="267" type="curve" smooth="yes"/>
      <point x="273" y="297"/>
      <point x="261" y="310"/>
      <point x="232" y="310" type="curve" smooth="yes"/>
      <point x="205" y="310"/>
      <point x="200" y="278"/>
      <point x="207" y="235" type="curve"/>
      <point x="32" y="235" type="line"/>
      <point x="15" y="391"/>
      <point x="55" y="501"/>
      <point x="176" y="501" type="curve" smooth="yes"/>
      <point x="228" y="501"/>
      <point x="270" y="480"/>
      <point x="302" y="463" type="curve" smooth="yes"/>
      <point x="319" y="454"/>
      <point x="367" y="426"/>
      <point x="383" y="426" type="curve" smooth="yes"/>
      <point x="403" y="426"/>
      <point x="414" y="446"/>
      <point x="403" y="499" type="curve"/>
      <point x="578" y="499" type="line"/>
      <point x="600" y="348"/>
      <point x="540" y="232"/>
    </contour>
  </outline>
</glyph>
<glyph name="exclamdown" format="1">
  <advance width="366"/>
  <unicode hex="00A1"/>
  <outline>
    <contour>
      <point x="301" y="526" type="line"/>
      <point x="65" y="526" type="line"/>
      <point x="65" y="730" type="line"/>
      <point x="301" y="730" type="line"/>
    </contour>
    <contour>
      <point x="301" y="0" type="line"/>
      <point x="65" y="0" type="line"/>
      <point x="65" y="207" type="line"/>
      <point x="102" y="463" type="line"/>
      <point x="265" y="463" type="line"/>
      <point x="301" y="207" type="line"/>
    </contour>
  </outline>
</glyph>
<glyph name="cent" format="1">
  <advance width="500"/>
  <unicode hex="00A2"/>
  <outline>
    <contour>
      <point x="484" y="84" type="line"/>
      <point x="446" y="36"/>
      <point x="395" y="0"/>
      <point x="325" y="-9" type="curve"/>
      <point x="325" y="-79" type="line"/>
      <point x="247" y="-79" type="line"/>
      <point x="247" y="-9" type="line"/>
      <point x="120" y="6"/>
      <point x="23" y="96"/>
      <point x="23" y="229" type="curve" smooth="yes"/>
      <point x="23" y="358"/>
      <point x="122" y="453"/>
      <point x="247" y="470" type="curve"/>
      <point x="247" y="525" type="line"/>
      <point x="325" y="525" type="line"/>
      <point x="325" y="471" type="line"/>
      <point x="395" y="463"/>
      <point x="443" y="430"/>
      <point x="479" y="385" type="curve"/>
      <point x="371" y="281" type="line"/>
      <point x="355" y="301"/>
      <point x="337" y="315"/>
      <point x="315" y="322" type="curve"/>
      <point x="315" y="138" type="line"/>
      <point x="336" y="142"/>
      <point x="357" y="156"/>
      <point x="375" y="178" type="curve"/>
    </contour>
    <contour>
      <point x="257" y="139" type="curve"/>
      <point x="257" y="321" type="line"/>
      <point x="224" y="309"/>
      <point x="203" y="276"/>
      <point x="203" y="229" type="curve" smooth="yes"/>
      <point x="203" y="185"/>
      <point x="224" y="151"/>
    </contour>
  </outline>
</glyph>
<glyph name="sterling" format="1">
  <advance width="857"/>
  <unicode hex="00A3"/>
  <outline>
    <contour>
      <point x="644" y="257" type="curve"/>
      <point x="815" y="257" type="line"/>
      <point x="815" y="257"/>
      <point x="815" y="209"/>
      <point x="815" y="179" type="curve" smooth="yes"/>
      <point x="815" y="50"/>
      <point x="758" y="-12"/>
      <point x="662" y="-12" type="curve" smooth="yes"/>
      <point x="550" y="-12"/>
      <point x="491" y="48"/>
      <point x="466" y="69" type="curve"/>
      <point x="422" y="17"/>
      <point x="351" y="-12"/>
      <point x="250" y="-12" type="curve" smooth="yes"/>
      <point x="110" y="-12"/>
      <point x="42" y="53"/>
      <point x="42" y="134" type="curve" smooth="yes"/>
      <point x="42" y="223"/>
      <point x="110" y="283"/>
      <point x="209" y="283" type="curve" smooth="yes"/>
      <point x="241" y="283"/>
      <point x="278" y="278"/>
      <point x="316" y="265" type="curve"/>
      <point x="297" y="284"/>
      <point x="267" y="310"/>
      <point x="238" y="330" type="curve"/>
      <point x="53" y="330" type="line"/>
      <point x="53" y="378" type="line"/>
      <point x="179" y="378" type="line"/>
      <point x="165" y="395"/>
      <point x="147" y="406"/>
      <point x="132" y="425" type="curve"/>
      <point x="53" y="425" type="line"/>
      <point x="53" y="473" type="line"/>
      <point x="105" y="473" type="line"/>
      <point x="95" y="494"/>
      <point x="93" y="517"/>
      <point x="93" y="540" type="curve" smooth="yes"/>
      <point x="93" y="640"/>
      <point x="193" y="742"/>
      <point x="409" y="742" type="curve" smooth="yes"/>
      <point x="607" y="742"/>
      <point x="735" y="665"/>
      <point x="743" y="493" type="curve"/>
      <point x="517" y="493" type="line"/>
      <point x="517" y="560"/>
      <point x="483" y="597"/>
      <point x="411" y="597" type="curve" smooth="yes"/>
      <point x="352" y="597"/>
      <point x="325" y="566"/>
      <point x="325" y="526" type="curve" smooth="yes"/>
      <point x="325" y="503"/>
      <point x="333" y="481"/>
      <point x="345" y="473" type="curve"/>
      <point x="570" y="473" type="line"/>
      <point x="570" y="425" type="line"/>
      <point x="384" y="425" type="line"/>
      <point x="401" y="411"/>
      <point x="419" y="395"/>
      <point x="435" y="378" type="curve"/>
      <point x="570" y="378" type="line"/>
      <point x="570" y="330" type="line"/>
      <point x="469" y="330" type="line"/>
      <point x="487" y="304"/>
      <point x="503" y="254"/>
      <point x="502" y="221" type="curve"/>
      <point x="534" y="207"/>
      <point x="568" y="188"/>
      <point x="598" y="188" type="curve" smooth="yes"/>
      <point x="630" y="188"/>
      <point x="647" y="207"/>
    </contour>
    <contour>
      <point x="236" y="96" type="curve" smooth="yes"/>
      <point x="284" y="96"/>
      <point x="323" y="123"/>
      <point x="334" y="160" type="curve"/>
      <point x="309" y="180"/>
      <point x="271" y="191"/>
      <point x="241" y="191" type="curve" smooth="yes"/>
      <point x="195" y="191"/>
      <point x="172" y="171"/>
      <point x="172" y="141" type="curve" smooth="yes"/>
      <point x="172" y="115"/>
      <point x="193" y="96"/>
    </contour>
  </outline>
</glyph>
<glyph name="yen" format="1">
  <advance width="766"/>
  <unicode hex="00A5"/>
  <outline>
    <contour>
      <point x="495" y="263" type="line"/>
      <point x="619" y="263" type="line"/>
      <point x="619" y="220" type="line"/>
      <point x="493" y="220" type="line"/>
      <point x="493" y="160" type="line"/>
      <point x="619" y="160" type="line"/>
      <point x="619" y="119" type="line"/>
      <point x="493" y="119" type="line"/>
      <point x="493" y="0" type="line"/>
      <point x="267" y="0" type="line"/>
      <point x="267" y="119" type="line"/>
      <point x="145" y="119" type="line"/>
      <point x="145" y="160" type="line"/>
      <point x="267" y="160" type="line"/>
      <point x="267" y="220" type="line"/>
      <point x="145" y="220" type="line"/>
      <point x="145" y="263" type="line"/>
      <point x="260" y="263" type="line"/>
      <point x="20" y="730" type="line"/>
      <point x="275" y="730" type="line"/>
      <point x="362" y="501" type="line" smooth="yes"/>
      <point x="369" y="483"/>
      <point x="379" y="453"/>
      <point x="383" y="439" type="curve"/>
      <point x="386" y="453"/>
      <point x="398" y="487"/>
      <point x="403" y="501" type="curve" smooth="yes"/>
      <point x="487" y="730" type="line"/>
      <point x="746" y="730" type="line"/>
    </contour>
  </outline>
</glyph>
<glyph name="section" format="1">
  <advance width="641"/>
  <unicode hex="00A7"/>
  <outline>
    <contour>
      <point x="545" y="12" type="curve" smooth="yes"/>
      <point x="545" y="-105"/>
      <point x="449" y="-191"/>
      <point x="318" y="-191" type="curve" smooth="yes"/>
      <point x="212" y="-191"/>
      <point x="143" y="-163"/>
      <point x="70" y="-108" type="curve"/>
      <point x="157" y="29" type="line"/>
      <point x="201" y="-7"/>
      <point x="262" y="-28"/>
      <point x="323" y="-28" type="curve" smooth="yes"/>
      <point x="351" y="-28"/>
      <point x="368" y="-14"/>
      <point x="368" y="0" type="curve" smooth="yes"/>
      <point x="368" y="19"/>
      <point x="357" y="20"/>
      <point x="315" y="37" type="curve" smooth="yes"/>
      <point x="205" y="81" type="line" smooth="yes"/>
      <point x="82" y="130"/>
      <point x="44" y="177"/>
      <point x="44" y="266" type="curve" smooth="yes"/>
      <point x="44" y="331"/>
      <point x="98" y="391"/>
      <point x="134" y="418" type="curve"/>
      <point x="88" y="455"/>
      <point x="74" y="504"/>
      <point x="74" y="552" type="curve" smooth="yes"/>
      <point x="74" y="667"/>
      <point x="182" y="742"/>
      <point x="314" y="742" type="curve" smooth="yes"/>
      <point x="418" y="742"/>
      <point x="495" y="705"/>
      <point x="558" y="653" type="curve"/>
      <point x="472" y="511" type="line"/>
      <point x="413" y="554"/>
      <point x="355" y="578"/>
      <point x="307" y="578" type="curve" smooth="yes"/>
      <point x="281" y="578"/>
      <point x="263" y="573"/>
      <point x="263" y="555" type="curve" smooth="yes"/>
      <point x="263" y="541"/>
      <point x="272" y="535"/>
      <point x="312" y="520" type="curve" smooth="yes"/>
      <point x="435" y="474" type="line" smooth="yes"/>
      <point x="540" y="435"/>
      <point x="601" y="390"/>
      <point x="601" y="284" type="curve" smooth="yes"/>
      <point x="601" y="207"/>
      <point x="552" y="149"/>
      <point x="507" y="110" type="curve"/>
      <point x="523" y="93"/>
      <point x="545" y="63"/>
    </contour>
    <contour>
      <point x="244" y="368" type="line"/>
      <point x="226" y="354"/>
      <point x="206" y="327"/>
      <point x="206" y="305" type="curve" smooth="yes"/>
      <point x="206" y="263"/>
      <point x="234" y="252"/>
      <point x="286" y="231" type="curve" smooth="yes"/>
      <point x="392" y="189" type="line"/>
      <point x="409" y="203"/>
      <point x="426" y="226"/>
      <point x="426" y="254" type="curve" smooth="yes"/>
      <point x="426" y="289"/>
      <point x="404" y="300"/>
      <point x="362" y="318" type="curve" smooth="yes"/>
    </contour>
  </outline>
</glyph>
<glyph name="dieresis" format="1">
  <advance width="500"/>
  <unicode hex="00A8"/>
  <outline>
    <contour>
      <point x="291" y="498" type="line"/>
      <point x="291" y="647" type="line"/>
      <point x="458" y="647" type="line"/>
      <point x="458" y="498" type="line"/>
    </contour>
    <contour>
      <point x="42" y="498" type="line"/>
      <point x="42" y="647" type="line"/>
      <point x="209" y="647" type="line"/>
      <point x="209" y="498" type="line"/>
    </contour>
  </outline>
</glyph>
<glyph name="copyright" format="1">
  <advance width="844"/>
  <unicode hex="00A9"/>
  <outline>
    <contour>
      <point x="799" y="365" type="curve" smooth="yes"/>
      <point x="799" y="157"/>
      <point x="630" y="-12"/>
      <point x="422" y="-12" type="curve" smooth="yes"/>
      <point x="214" y="-12"/>
      <point x="45" y="157"/>
      <point x="45" y="365" type="curve" smooth="yes"/>
      <point x="45" y="573"/>
      <point x="214" y="742"/>
      <point x="422" y="742" type="curve" smooth="yes"/>
      <point x="630" y="742"/>
      <point x="799" y="573"/>
    </contour>
    <contour>
      <point x="734" y="364" type="curve" smooth="yes"/>
      <point x="734" y="544"/>
      <point x="602" y="684"/>
      <point x="422" y="684" type="curve" smooth="yes"/>
      <point x="242" y="684"/>
      <point x="110" y="544"/>
      <point x="110" y="364" type="curve" smooth="yes"/>
      <point x="110" y="184"/>
      <point x="242" y="45"/>
      <point x="422" y="45" type="curve" smooth="yes"/>
      <point x="602" y="45"/>
      <point x="734" y="184"/>
    </contour>
    <contour>
      <point x="602" y="204" type="line"/>
      <point x="560" y="167"/>
      <point x="513" y="141"/>
      <point x="436" y="141" type="curve" smooth="yes"/>
      <point x="303" y="141"/>
      <point x="208" y="235"/>
      <point x="208" y="366" type="curve" smooth="yes"/>
      <point x="208" y="514"/>
      <point x="320" y="593"/>
      <point x="433" y="593" type="curve" smooth="yes"/>
      <point x="492" y="593"/>
      <point x="550" y="573"/>
      <point x="593" y="531" type="curve"/>
      <point x="522" y="435" type="line"/>
      <point x="498" y="459"/>
      <point x="468" y="473"/>
      <point x="440" y="473" type="curve" smooth="yes"/>
      <point x="393" y="473"/>
      <point x="351" y="440"/>
      <point x="351" y="369" type="curve" smooth="yes"/>
      <point x="351" y="306"/>
      <point x="386" y="261"/>
      <point x="444" y="261" type="curve" smooth="yes"/>
      <point x="476" y="261"/>
      <point x="506" y="275"/>
      <point x="532" y="299" type="curve"/>
    </contour>
  </outline>
</glyph>
<glyph name="ordfeminine" format="1">
  <advance width="474"/>
  <unicode hex="00AA"/>
  <outline>
    <contour>
      <point x="400" y="400" type="line"/>
      <point x="289" y="400" type="line"/>
      <point x="289" y="424" type="line"/>
      <point x="259" y="401"/>
      <point x="227" y="390"/>
      <point x="187" y="390" type="curve" smooth="yes"/>
      <point x="103" y="390"/>
      <point x="63" y="441"/>
      <point x="63" y="502" type="curve" smooth="yes"/>
      <point x="63" y="581"/>
      <point x="141" y="624"/>
      <point x="243" y="624" type="curve" smooth="yes"/>
      <point x="291" y="624" type="line"/>
      <point x="291" y="648"/>
      <point x="276" y="657"/>
      <point x="227" y="657" type="curve" smooth="yes"/>
      <point x="185" y="657"/>
      <point x="143" y="646"/>
      <point x="124" y="637" type="curve"/>
      <point x="97" y="712" type="line"/>
      <point x="123" y="725"/>
      <point x="176" y="742"/>
      <point x="237" y="742" type="curve" smooth="yes"/>
      <point x="355" y="742"/>
      <point x="400" y="692"/>
      <point x="400" y="620" type="curve" smooth="yes"/>
    </contour>
    <contour>
      <point x="400" y="236" type="line"/>
      <point x="63" y="236" type="line"/>
      <point x="63" y="336" type="line"/>
      <point x="400" y="336" type="line"/>
    </contour>
    <contour>
      <point x="289" y="504" type="curve"/>
      <point x="289" y="541" type="line"/>
      <point x="240" y="541" type="line" smooth="yes"/>
      <point x="196" y="541"/>
      <point x="168" y="532"/>
      <point x="168" y="506" type="curve" smooth="yes"/>
      <point x="168" y="492"/>
      <point x="177" y="478"/>
      <point x="210" y="478" type="curve" smooth="yes"/>
      <point x="248" y="478"/>
      <point x="267" y="487"/>
    </contour>
  </outline>
</glyph>
<glyph name="guillemotleft" format="1">
  <advance width="550"/>
  <unicode hex="00AB"/>
  <outline>
    <contour>
      <point x="293" y="140" type="line"/>
      <point x="293" y="333" type="line"/>
      <point x="483" y="441" type="line"/>
      <point x="483" y="276" type="line"/>
      <point x="407" y="235" type="line"/>
      <point x="483" y="197" type="line"/>
      <point x="483" y="34" type="line"/>
    </contour>
    <contour>
      <point x="45" y="140" type="line"/>
      <point x="45" y="333" type="line"/>
      <point x="235" y="441" type="line"/>
      <point x="235" y="276" type="line"/>
      <point x="159" y="235" type="line"/>
      <point x="235" y="197" type="line"/>
      <point x="235" y="34" type="line"/>
    </contour>
  </outline>
</glyph>
<glyph name="degree" format="1">
  <advance width="436"/>
  <unicode hex="00B0"/>
  <outline>
    <contour>
      <point x="411" y="549" type="curve" smooth="yes"/>
      <point x="411" y="442"/>
      <point x="325" y="356"/>
      <point x="218" y="356" type="curve" smooth="yes"/>
      <point x="111" y="356"/>
      <point x="25" y="442"/>
      <point x="25" y="549" type="curve" smooth="yes"/>
      <point x="25" y="656"/>
      <point x="111" y="742"/>
      <point x="218" y="742" type="curve" smooth="yes"/>
      <point x="325" y="742"/>
      <point x="411" y="656"/>
    </contour>
    <contour>
      <point x="218" y="633" type="curve" smooth="yes"/>
      <point x="172" y="633"/>
      <point x="135" y="595"/>
      <point x="135" y="549" type="curve" smooth="yes"/>
      <point x="135" y="503"/>
      <point x="172" y="465"/>
      <point x="218" y="465" type="curve" smooth="yes"/>
      <point x="264" y="465"/>
      <point x="301" y="503"/>
      <point x="301" y="549" type="curve" smooth="yes"/>
      <point x="301" y="595"/>
      <point x="264" y="633"/>
    </contour>
  </outline>
</glyph>
<glyph name="twosuperior" format="1">
  <advance width="465"/>
  <unicode hex="00B2"/>
  <outline>
    <contour>
      <point x="340" y="451" type="line"/>
      <point x="413" y="451" type="line"/>
      <point x="413" y="329" type="line"/>
      <point x="45" y="329" type="line"/>
      <point x="235" y="529" type="line" smooth="yes"/>
      <point x="249" y="544"/>
      <point x="263" y="563"/>
      <point x="263" y="578" type="curve" smooth="yes"/>
      <point x="263" y="596"/>
      <point x="256" y="614"/>
      <point x="231" y="614" type="curve" smooth="yes"/>
      <point x="206" y="614"/>
      <point x="194" y="594"/>
      <point x="194" y="563" type="curve" smooth="yes"/>
      <point x="194" y="554" type="line"/>
      <point x="56" y="554" type="line"/>
      <point x="56" y="560" type="line" smooth="yes"/>
      <point x="56" y="655"/>
      <point x="123" y="740"/>
      <point x="236" y="740" type="curve" smooth="yes"/>
      <point x="372" y="740"/>
      <point x="414" y="656"/>
      <point x="414" y="590" type="curve" smooth="yes"/>
      <point x="414" y="548"/>
      <point x="396" y="516"/>
      <point x="367" y="482" type="curve" smooth="yes"/>
    </contour>
  </outline>
</glyph>
<glyph name="acute" format="1">
  <advance width="500"/>
  <unicode hex="00B4"/>
  <outline>
    <contour>
      <point x="289" y="498" type="line"/>
      <point x="157" y="498" type="line"/>
      <point x="222" y="675" type="line"/>
      <point x="383" y="675" type="line"/>
    </contour>
  </outline>
</glyph>
<glyph name="paragraph" format="1">
  <advance width="835"/>
  <unicode hex="00B6"/>
  <outline>
    <contour>
      <point x="775" y="-179" type="line"/>
      <point x="562" y="-179" type="line"/>
      <point x="562" y="601" type="line"/>
      <point x="498" y="601" type="line"/>
      <point x="498" y="-179" type="line"/>
      <point x="375" y="-179" type="line"/>
      <point x="375" y="207" type="line"/>
      <point x="341" y="207" type="line" smooth="yes"/>
      <point x="155" y="207"/>
      <point x="32" y="302"/>
      <point x="32" y="465" type="curve" smooth="yes"/>
      <point x="32" y="642"/>
      <point x="160" y="730"/>
      <point x="369" y="730" type="curve" smooth="yes"/>
      <point x="775" y="730" type="line"/>
    </contour>
    <contour>
      <point x="375" y="341" type="line"/>
      <point x="375" y="596" type="line"/>
      <point x="371" y="596" type="line" smooth="yes"/>
      <point x="297" y="596"/>
      <point x="264" y="553"/>
      <point x="264" y="471" type="curve" smooth="yes"/>
      <point x="264" y="386"/>
      <point x="297" y="341"/>
      <point x="365" y="341" type="curve" smooth="yes"/>
    </contour>
  </outline>
</glyph>
<glyph name="periodcentered" format="1">
  <advance width="300"/>
  <unicode hex="00B7"/>
  <outline>
    <contour>
      <point x="263" y="178" type="line"/>
      <point x="37" y="178" type="line"/>
      <point x="37" y="400" type="line"/>
      <point x="263" y="400" type="line"/>
    </contour>
  </outline>
</glyph>
<glyph name="cedilla" format="1">
  <advance width="500"/>
  <unicode hex="00B8"/>
  <outline>
    <contour>
      <point x="123" y="-160" type="curve"/>
      <point x="163" y="-93" type="line"/>
      <point x="189" y="-106"/>
      <point x="212" y="-115"/>
      <point x="238" y="-115" type="curve" smooth="yes"/>
      <point x="254" y="-115"/>
      <point x="264" y="-105"/>
      <point x="264" y="-95" type="curve" smooth="yes"/>
      <point x="264" y="-85"/>
      <point x="255" y="-75"/>
      <point x="233" y="-75" type="curve" smooth="yes"/>
      <point x="219" y="-75"/>
      <point x="204" y="-79"/>
      <point x="191" y="-88" type="curve"/>
      <point x="165" y="-33" type="line"/>
      <point x="203" y="19" type="line"/>
      <point x="295" y="19" type="line"/>
      <point x="271" y="-10" type="line"/>
      <point x="330" y="-8"/>
      <point x="372" y="-47"/>
      <point x="372" y="-91" type="curve" smooth="yes"/>
      <point x="372" y="-157"/>
      <point x="308" y="-199"/>
      <point x="246" y="-199" type="curve" smooth="yes"/>
      <point x="201" y="-199"/>
      <point x="153" y="-181"/>
    </contour>
  </outline>
</glyph>
<glyph name="ordmasculine" format="1">
  <advance width="499"/>
  <unicode hex="00BA"/>
  <outline>
    <contour>
      <point x="431" y="572" type="curve" smooth="yes"/>
      <point x="431" y="471"/>
      <point x="349" y="390"/>
      <point x="248" y="390" type="curve" smooth="yes"/>
      <point x="149" y="390"/>
      <point x="67" y="460"/>
      <point x="67" y="569" type="curve" smooth="yes"/>
      <point x="67" y="658"/>
      <point x="142" y="742"/>
      <point x="246" y="742" type="curve" smooth="yes"/>
      <point x="350" y="742"/>
      <point x="431" y="662"/>
    </contour>
    <contour>
      <point x="431" y="236" type="line"/>
      <point x="67" y="236" type="line"/>
      <point x="67" y="336" type="line"/>
      <point x="431" y="336" type="line"/>
    </contour>
    <contour>
      <point x="247" y="633" type="curve" smooth="yes"/>
      <point x="210" y="633"/>
      <point x="179" y="602"/>
      <point x="179" y="565" type="curve" smooth="yes"/>
      <point x="179" y="528"/>
      <point x="210" y="498"/>
      <point x="247" y="498" type="curve" smooth="yes"/>
      <point x="284" y="498"/>
      <point x="315" y="528"/>
      <point x="315" y="565" type="curve" smooth="yes"/>
      <point x="315" y="602"/>
      <point x="284" y="633"/>
    </contour>
  </outline>
</glyph>
<glyph name="guillemotright" format="1">
  <advance width="550"/>
  <unicode hex="00BB"/>
  <outline>
    <contour>
      <point x="505" y="140" type="line"/>
      <point x="315" y="34" type="line"/>
      <point x="315" y="197" type="line"/>
      <point x="391" y="235" type="line"/>
      <point x="315" y="276" type="line"/>
      <point x="315" y="441" type="line"/>
      <point x="505" y="333" type="line"/>
    </contour>
    <contour>
      <point x="257" y="140" type="line"/>
      <point x="67" y="34" type="line"/>
      <point x="67" y="197" type="line"/>
      <point x="143" y="235" type="line"/>
      <point x="67" y="276" type="line"/>
      <point x="67" y="441" type="line"/>
      <point x="257" y="333" type="line"/>
    </contour>
  </outline>
</glyph>
<glyph name="onequarter" format="1">
  <advance width="1039"/>
  <unicode hex="00BC"/>
  <outline>
    <contour>
      <point x="285" y="325" type="line"/>
      <point x="116" y="325" type="line"/>
      <point x="116" y="566" type="line"/>
      <point x="98" y="551"/>
      <point x="71" y="544"/>
      <point x="40" y="542" type="curve"/>
      <point x="40" y="657" type="line"/>
      <point x="82" y="662"/>
      <point x="113" y="676"/>
      <point x="137" y="730" type="curve"/>
      <point x="285" y="730" type="line"/>
    </contour>
    <contour>
      <point x="839" y="730" type="line"/>
      <point x="342" y="0" type="line"/>
      <point x="137" y="0" type="line"/>
      <point x="634" y="730" type="line"/>
    </contour>
    <contour>
      <point x="986" y="76" type="line"/>
      <point x="934" y="76" type="line"/>
      <point x="934" y="0" type="line"/>
      <point x="784" y="0" type="line"/>
      <point x="784" y="76" type="line"/>
      <point x="583" y="76" type="line"/>
      <point x="583" y="173" type="line"/>
      <point x="754" y="400" type="line"/>
      <point x="934" y="400" type="line"/>
      <point x="934" y="184" type="line"/>
      <point x="986" y="184" type="line"/>
    </contour>
    <contour>
      <point x="711" y="186" type="line"/>
      <point x="784" y="186" type="line"/>
      <point x="784" y="279" type="line"/>
    </contour>
  </outline>
</glyph>
<glyph name="onehalf" format="1">
  <advance width="1009"/>
  <unicode hex="00BD"/>
  <outline>
    <contour>
      <point x="285" y="325" type="line"/>
      <point x="116" y="325" type="line"/>
      <point x="116" y="566" type="line"/>
      <point x="98" y="551"/>
      <point x="71" y="544"/>
      <point x="40" y="542" type="curve"/>
      <point x="40" y="657" type="line"/>
      <point x="82" y="662"/>
      <point x="113" y="676"/>
      <point x="137" y="730" type="curve"/>
      <point x="285" y="730" type="line"/>
    </contour>
    <contour>
      <point x="829" y="730" type="line"/>
      <point x="332" y="0" type="line"/>
      <point x="127" y="0" type="line"/>
      <point x="624" y="730" type="line"/>
    </contour>
    <contour>
      <point x="884" y="122" type="line"/>
      <point x="957" y="122" type="line"/>
      <point x="957" y="0" type="line"/>
      <point x="589" y="0" type="line"/>
      <point x="779" y="200" type="line" smooth="yes"/>
      <point x="793" y="215"/>
      <point x="807" y="234"/>
      <point x="807" y="249" type="curve" smooth="yes"/>
      <point x="807" y="267"/>
      <point x="800" y="285"/>
      <point x="775" y="285" type="curve" smooth="yes"/>
      <point x="750" y="285"/>
      <point x="738" y="265"/>
      <point x="738" y="234" type="curve" smooth="yes"/>
      <point x="738" y="225" type="line"/>
      <point x="600" y="225" type="line"/>
      <point x="600" y="231" type="line" smooth="yes"/>
      <point x="600" y="326"/>
      <point x="667" y="411"/>
      <point x="780" y="411" type="curve" smooth="yes"/>
      <point x="916" y="411"/>
      <point x="958" y="327"/>
      <point x="958" y="261" type="curve" smooth="yes"/>
      <point x="958" y="219"/>
      <point x="940" y="187"/>
      <point x="911" y="153" type="curve" smooth="yes"/>
    </contour>
  </outline>
</glyph>
<glyph name="threequarters" format="1">
  <advance width="1079"/>
  <unicode hex="00BE"/>
  <outline>
    <contour>
      <point x="388" y="452" type="curve" smooth="yes"/>
      <point x="388" y="375"/>
      <point x="311" y="323"/>
      <point x="212" y="323" type="curve" smooth="yes"/>
      <point x="126" y="323"/>
      <point x="67" y="345"/>
      <point x="33" y="388" type="curve"/>
      <point x="121" y="480" type="line"/>
      <point x="139" y="459"/>
      <point x="160" y="438"/>
      <point x="194" y="438" type="curve" smooth="yes"/>
      <point x="224" y="438"/>
      <point x="234" y="451"/>
      <point x="234" y="467" type="curve" smooth="yes"/>
      <point x="234" y="483"/>
      <point x="219" y="496"/>
      <point x="187" y="496" type="curve" smooth="yes"/>
      <point x="166" y="496" type="line"/>
      <point x="166" y="574" type="line"/>
      <point x="187" y="574" type="line" smooth="yes"/>
      <point x="211" y="574"/>
      <point x="225" y="587"/>
      <point x="225" y="601" type="curve" smooth="yes"/>
      <point x="225" y="622"/>
      <point x="209" y="627"/>
      <point x="190" y="627" type="curve" smooth="yes"/>
      <point x="167" y="627"/>
      <point x="144" y="612"/>
      <point x="126" y="592" type="curve"/>
      <point x="52" y="690" type="line"/>
      <point x="91" y="724"/>
      <point x="137" y="740"/>
      <point x="212" y="740" type="curve" smooth="yes"/>
      <point x="305" y="740"/>
      <point x="379" y="701"/>
      <point x="379" y="631" type="curve" smooth="yes"/>
      <point x="379" y="585"/>
      <point x="355" y="560"/>
      <point x="327" y="543" type="curve"/>
      <point x="367" y="526"/>
      <point x="388" y="493"/>
    </contour>
    <contour>
      <point x="880" y="730" type="line"/>
      <point x="383" y="0" type="line"/>
      <point x="178" y="0" type="line"/>
      <point x="675" y="730" type="line"/>
    </contour>
    <contour>
      <point x="1026" y="76" type="line"/>
      <point x="974" y="76" type="line"/>
      <point x="974" y="0" type="line"/>
      <point x="824" y="0" type="line"/>
      <point x="824" y="76" type="line"/>
      <point x="623" y="76" type="line"/>
      <point x="623" y="173" type="line"/>
      <point x="794" y="400" type="line"/>
      <point x="974" y="400" type="line"/>
      <point x="974" y="184" type="line"/>
      <point x="1026" y="184" type="line"/>
    </contour>
    <contour>
      <point x="751" y="186" type="line"/>
      <point x="824" y="186" type="line"/>
      <point x="824" y="279" type="line"/>
    </contour>
  </outline>
</glyph>
<glyph name="questiondown" format="1">
  <advance width="500"/>
  <unicode hex="00BF"/>
  <outline>
    <contour>
      <point x="381" y="526" type="line"/>
      <point x="145" y="526" type="line"/>
      <point x="145" y="730" type="line"/>
      <point x="381" y="730" type="line"/>
    </contour>
    <contour>
      <point x="498" y="80" type="line"/>
      <point x="427" y="22"/>
      <point x="354" y="-11"/>
      <point x="246" y="-11" type="curve" smooth="yes"/>
      <point x="99" y="-11"/>
      <point x="13" y="55"/>
      <point x="13" y="163" type="curve" smooth="yes"/>
      <point x="13" y="236"/>
      <point x="37" y="273"/>
      <point x="98" y="341" type="curve" smooth="yes"/>
      <point x="145" y="393"/>
      <point x="163" y="420"/>
      <point x="163" y="459" type="curve" smooth="yes"/>
      <point x="163" y="463" type="line"/>
      <point x="363" y="463" type="line"/>
      <point x="363" y="449" type="line" smooth="yes"/>
      <point x="363" y="388"/>
      <point x="348" y="339"/>
      <point x="306" y="290" type="curve" smooth="yes"/>
      <point x="256" y="232"/>
      <point x="250" y="221"/>
      <point x="250" y="203" type="curve" smooth="yes"/>
      <point x="250" y="186"/>
      <point x="262" y="176"/>
      <point x="284" y="176" type="curve" smooth="yes"/>
      <point x="309" y="176"/>
      <point x="349" y="198"/>
      <point x="396" y="244" type="curve"/>
    </contour>
  </outline>
</glyph>
<glyph name="Adieresis" format="1">
  <advance width="780"/>
  <unicode hex="00C4"/>
  <outline>
    <contour>
      <point x="598" y="581" type="line"/>
      <point x="598" y="730" type="line"/>
      <point x="765" y="730" type="line"/>
      <point x="765" y="581" type="line"/>
    </contour>
    <contour>
      <point x="15" y="581" type="line"/>
      <point x="15" y="730" type="line"/>
      <point x="182" y="730" type="line"/>
      <point x="182" y="581" type="line"/>
    </contour>
    <contour>
      <point x="775" y="0" type="line"/>
      <point x="530" y="0" type="line"/>
      <point x="491" y="133" type="line"/>
      <point x="277" y="133" type="line"/>
      <point x="238" y="0" type="line"/>
      <point x="5" y="0" type="line"/>
      <point x="258" y="730" type="line"/>
      <point x="522" y="730" type="line"/>
    </contour>
    <contour>
      <point x="439" y="309" type="line"/>
      <point x="384" y="494" type="line"/>
      <point x="329" y="309" type="line"/>
    </contour>
  </outline>
</glyph>
<glyph name="Aring" format="1">
  <advance width="780"/>
  <unicode hex="00C5"/>
  <outline>
    <contour>
      <point x="513" y="755" type="curve"/>
      <point x="775" y="0" type="line"/>
      <point x="530" y="0" type="line"/>
      <point x="491" y="133" type="line"/>
      <point x="277" y="133" type="line"/>
      <point x="238" y="0" type="line"/>
      <point x="5" y="0" type="line"/>
      <point x="265" y="750" type="line"/>
      <point x="257" y="764"/>
      <point x="243" y="790"/>
      <point x="243" y="827" type="curve" smooth="yes"/>
      <point x="243" y="907"/>
      <point x="308" y="972"/>
      <point x="388" y="972" type="curve" smooth="yes"/>
      <point x="468" y="972"/>
      <point x="533" y="907"/>
      <point x="533" y="827" type="curve" smooth="yes"/>
      <point x="533" y="794"/>
      <point x="521" y="766"/>
    </contour>
    <contour>
      <point x="388" y="877" type="curve" smooth="yes"/>
      <point x="360" y="877"/>
      <point x="339" y="855"/>
      <point x="339" y="827" type="curve" smooth="yes"/>
      <point x="339" y="800"/>
      <point x="360" y="777"/>
      <point x="388" y="777" type="curve" smooth="yes"/>
      <point x="416" y="777"/>
      <point x="437" y="800"/>
      <point x="437" y="827" type="curve" smooth="yes"/>
      <point x="437" y="855"/>
      <point x="416" y="877"/>
    </contour>
    <contour>
      <point x="439" y="309" type="line"/>
      <point x="384" y="494" type="line"/>
      <point x="329" y="309" type="line"/>
    </contour>
  </outline>
</glyph>
<glyph name="AE" format="1">
  <advance width="971"/>
  <unicode hex="00C6"/>
  <outline>
    <contour>
      <point x="470" y="134" type="line"/>
      <point x="295" y="134" type="line"/>
      <point x="239" y="0" type="line"/>
      <point x="6" y="0" type="line"/>
      <point x="349" y="730" type="line"/>
      <point x="916" y="730" type="line"/>
      <point x="916" y="546" type="line"/>
      <point x="703" y="546" type="line"/>
      <point x="703" y="455" type="line"/>
      <point x="882" y="455" type="line"/>
      <point x="882" y="273" type="line"/>
      <point x="703" y="273" type="line"/>
      <point x="703" y="184" type="line"/>
      <point x="926" y="184" type="line"/>
      <point x="926" y="0" type="line"/>
      <point x="470" y="0" type="line"/>
    </contour>
    <contour>
      <point x="470" y="551" type="line"/>
      <point x="368" y="308" type="line"/>
      <point x="470" y="308" type="line"/>
    </contour>
  </outline>
</glyph>
<glyph name="Ccedilla" format="1">
  <advance width="708"/>
  <unicode hex="00C7"/>
  <outline>
    <contour>
      <point x="315" y="-2" type="line"/>
      <point x="144" y="36"/>
      <point x="29" y="176"/>
      <point x="29" y="362" type="curve" smooth="yes"/>
      <point x="29" y="580"/>
      <point x="194" y="742"/>
      <point x="414" y="742" type="curve" smooth="yes"/>
      <point x="531" y="742"/>
      <point x="609" y="692"/>
      <point x="672" y="638" type="curve"/>
      <point x="552" y="475" type="line"/>
      <point x="511" y="515"/>
      <point x="472" y="543"/>
      <point x="409" y="543" type="curve" smooth="yes"/>
      <point x="328" y="543"/>
      <point x="268" y="473"/>
      <point x="268" y="368" type="curve" smooth="yes"/>
      <point x="268" y="263"/>
      <point x="326" y="187"/>
      <point x="423" y="187" type="curve" smooth="yes"/>
      <point x="477" y="187"/>
      <point x="527" y="211"/>
      <point x="570" y="251" type="curve"/>
      <point x="687" y="92" type="line"/>
      <point x="618" y="32"/>
      <point x="540" y="-11"/>
      <point x="414" y="-12" type="curve"/>
      <point x="458" y="-21"/>
      <point x="488" y="-54"/>
      <point x="488" y="-91" type="curve" smooth="yes"/>
      <point x="488" y="-157"/>
      <point x="424" y="-199"/>
      <point x="362" y="-199" type="curve" smooth="yes"/>
      <point x="317" y="-199"/>
      <point x="269" y="-181"/>
      <point x="239" y="-160" type="curve"/>
      <point x="279" y="-93" type="line"/>
      <point x="305" y="-106"/>
      <point x="328" y="-115"/>
      <point x="354" y="-115" type="curve" smooth="yes"/>
      <point x="370" y="-115"/>
      <point x="380" y="-105"/>
      <point x="380" y="-95" type="curve" smooth="yes"/>
      <point x="380" y="-85"/>
      <point x="371" y="-75"/>
      <point x="349" y="-75" type="curve" smooth="yes"/>
      <point x="335" y="-75"/>
      <point x="323" y="-78"/>
      <point x="310" y="-87" type="curve"/>
      <point x="276" y="-37" type="line"/>
    </contour>
  </outline>
</glyph>
<glyph name="Eth" format="1">
  <advance width="766"/>
  <unicode hex="00D0"/>
  <outline>
    <contour>
      <point x="370" y="0" type="curve" smooth="yes"/>
      <point x="102" y="0" type="line"/>
      <point x="102" y="267" type="line"/>
      <point x="12" y="267" type="line"/>
      <point x="12" y="441" type="line"/>
      <point x="102" y="441" type="line"/>
      <point x="102" y="730" type="line"/>
      <point x="361" y="730" type="line" smooth="yes"/>
      <point x="529" y="730"/>
      <point x="734" y="638"/>
      <point x="734" y="365" type="curve" smooth="yes"/>
      <point x="734" y="86"/>
      <point x="509" y="0"/>
    </contour>
    <contour>
      <point x="363" y="546" type="curve" smooth="yes"/>
      <point x="328" y="546" type="line"/>
      <point x="328" y="441" type="line"/>
      <point x="376" y="441" type="line"/>
      <point x="376" y="267" type="line"/>
      <point x="328" y="267" type="line"/>
      <point x="328" y="185" type="line"/>
      <point x="382" y="185" type="line" smooth="yes"/>
      <point x="437" y="185"/>
      <point x="502" y="259"/>
      <point x="502" y="366" type="curve" smooth="yes"/>
      <point x="502" y="470"/>
      <point x="443" y="546"/>
    </contour>
  </outline>
</glyph>
<glyph name="Odieresis" format="1">
  <advance width="844"/>
  <unicode hex="00D6"/>
  <outline>
    <contour>
      <point x="666" y="668" type="curve"/>
      <point x="666" y="741" type="line"/>
      <point x="833" y="741" type="line"/>
      <point x="833" y="592" type="line"/>
      <point x="743" y="592" type="line"/>
      <point x="789" y="530"/>
      <point x="815" y="453"/>
      <point x="815" y="366" type="curve" smooth="yes"/>
      <point x="815" y="148"/>
      <point x="650" y="-12"/>
      <point x="421" y="-12" type="curve" smooth="yes"/>
      <point x="192" y="-12"/>
      <point x="29" y="146"/>
      <point x="29" y="364" type="curve" smooth="yes"/>
      <point x="29" y="452"/>
      <point x="56" y="530"/>
      <point x="102" y="592" type="curve"/>
      <point x="11" y="592" type="line"/>
      <point x="11" y="741" type="line"/>
      <point x="178" y="741" type="line"/>
      <point x="178" y="667" type="line"/>
      <point x="244" y="714"/>
      <point x="328" y="742"/>
      <point x="423" y="742" type="curve" smooth="yes"/>
      <point x="517" y="742"/>
      <point x="601" y="715"/>
    </contour>
    <contour>
      <point x="576" y="364" type="curve" smooth="yes"/>
      <point x="576" y="469"/>
      <point x="510" y="548"/>
      <point x="421" y="548" type="curve" smooth="yes"/>
      <point x="332" y="548"/>
      <point x="268" y="471"/>
      <point x="268" y="366" type="curve" smooth="yes"/>
      <point x="268" y="261"/>
      <point x="334" y="182"/>
      <point x="423" y="182" type="curve" smooth="yes"/>
      <point x="512" y="182"/>
      <point x="576" y="259"/>
    </contour>
  </outline>
</glyph>
<glyph name="multiply" format="1">
  <advance width="583"/>
  <unicode hex="00D7"/>
  <outline>
    <contour>
      <point x="152" y="70" type="line"/>
      <point x="34" y="193" type="line"/>
      <point x="171" y="329" type="line"/>
      <point x="32" y="466" type="line"/>
      <point x="156" y="589" type="line"/>
      <point x="292" y="450" type="line"/>
      <point x="430" y="590" type="line"/>
      <point x="552" y="471" type="line"/>
      <point x="412" y="330" type="line"/>
      <point x="549" y="195" type="line"/>
      <point x="428" y="74" type="line"/>
      <point x="291" y="209" type="line"/>
    </contour>
  </outline>
</glyph>
<glyph name="Oslash" format="1">
  <advance width="844"/>
  <unicode hex="00D8"/>
  <outline>
    <contour>
      <point x="106" y="131" type="line"/>
      <point x="57" y="194"/>
      <point x="29" y="274"/>
      <point x="29" y="364" type="curve" smooth="yes"/>
      <point x="29" y="582"/>
      <point x="194" y="742"/>
      <point x="423" y="742" type="curve" smooth="yes"/>
      <point x="521" y="742"/>
      <point x="607" y="713"/>
      <point x="674" y="662" type="curve"/>
      <point x="738" y="723" type="line"/>
      <point x="814" y="661" type="line"/>
      <point x="742" y="593" type="line"/>
      <point x="789" y="531"/>
      <point x="815" y="453"/>
      <point x="815" y="366" type="curve" smooth="yes"/>
      <point x="815" y="148"/>
      <point x="650" y="-12"/>
      <point x="421" y="-12" type="curve" smooth="yes"/>
      <point x="327" y="-12"/>
      <point x="243" y="15"/>
      <point x="178" y="62" type="curve"/>
      <point x="107" y="-5" type="line"/>
      <point x="35" y="64" type="line"/>
    </contour>
    <contour>
      <point x="280" y="293" type="curve"/>
      <point x="280" y="293"/>
      <point x="515" y="513"/>
      <point x="514" y="513" type="curve"/>
      <point x="489" y="535"/>
      <point x="457" y="548"/>
      <point x="421" y="548" type="curve" smooth="yes"/>
      <point x="332" y="548"/>
      <point x="268" y="471"/>
      <point x="268" y="366" type="curve" smooth="yes"/>
      <point x="268" y="340"/>
      <point x="272" y="315"/>
    </contour>
    <contour>
      <point x="567" y="428" type="curve"/>
      <point x="336" y="211" type="line"/>
      <point x="361" y="193"/>
      <point x="390" y="182"/>
      <point x="423" y="182" type="curve" smooth="yes"/>
      <point x="512" y="182"/>
      <point x="576" y="259"/>
      <point x="576" y="364" type="curve" smooth="yes"/>
      <point x="576" y="387"/>
      <point x="573" y="408"/>
    </contour>
  </outline>
</glyph>
<glyph name="Thorn" format="1">
  <advance width="658"/>
  <unicode hex="00DE"/>
  <outline>
    <contour>
      <point x="321" y="154" type="curve" smooth="yes"/>
      <point x="298" y="154" type="line"/>
      <point x="298" y="0" type="line"/>
      <point x="72" y="0" type="line"/>
      <point x="72" y="730" type="line"/>
      <point x="298" y="730" type="line"/>
      <point x="298" y="593" type="line"/>
      <point x="340" y="593" type="line" smooth="yes"/>
      <point x="520" y="593"/>
      <point x="638" y="535"/>
      <point x="638" y="387" type="curve" smooth="yes"/>
      <point x="638" y="226"/>
      <point x="535" y="154"/>
    </contour>
    <contour>
      <point x="355" y="413" type="curve" smooth="yes"/>
      <point x="298" y="413" type="line"/>
      <point x="298" y="334" type="line"/>
      <point x="349" y="334" type="line" smooth="yes"/>
      <point x="406" y="334"/>
      <point x="416" y="342"/>
      <point x="416" y="375" type="curve" smooth="yes"/>
      <point x="416" y="413"/>
      <point x="401" y="413"/>
    </contour>
  </outline>
</glyph>
<glyph name="germandbls" format="1">
  <advance width="630"/>
  <unicode hex="00DF"/>
  <outline>
    <contour>
      <point x="611" y="218" type="curve" smooth="yes"/>
      <point x="611" y="79"/>
      <point x="506" y="-12"/>
      <point x="360" y="-12" type="curve" smooth="yes"/>
      <point x="342" y="-12"/>
      <point x="320" y="-8"/>
      <point x="309" y="-6" type="curve"/>
      <point x="309" y="138" type="line"/>
      <point x="380" y="133"/>
      <point x="412" y="165"/>
      <point x="412" y="238" type="curve" smooth="yes"/>
      <point x="412" y="315"/>
      <point x="379" y="334"/>
      <point x="280" y="334" type="curve"/>
      <point x="280" y="448" type="line"/>
      <point x="282" y="448"/>
      <point x="283" y="448"/>
      <point x="285" y="448" type="curve" smooth="yes"/>
      <point x="349" y="448"/>
      <point x="352" y="500"/>
      <point x="352" y="523" type="curve" smooth="yes"/>
      <point x="352" y="562"/>
      <point x="330" y="581"/>
      <point x="303" y="581" type="curve" smooth="yes"/>
      <point x="275" y="581"/>
      <point x="258" y="565"/>
      <point x="258" y="528" type="curve" smooth="yes"/>
      <point x="258" y="362"/>
      <point x="258" y="0"/>
      <point x="258" y="0" type="curve"/>
      <point x="42" y="0" type="line"/>
      <point x="42" y="517" type="line" smooth="yes"/>
      <point x="42" y="660"/>
      <point x="142" y="742"/>
      <point x="299" y="742" type="curve" smooth="yes"/>
      <point x="446" y="742"/>
      <point x="553" y="660"/>
      <point x="553" y="542" type="curve" smooth="yes"/>
      <point x="553" y="482"/>
      <point x="523" y="423"/>
      <point x="464" y="398" type="curve"/>
      <point x="519" y="387"/>
      <point x="611" y="348"/>
    </contour>
  </outline>
</glyph>
<glyph name="ae" format="1">
  <advance width="831"/>
  <unicode hex="00E6"/>
  <outline>
    <contour>
      <point x="431" y="417" type="curve"/>
      <point x="462" y="440"/>
      <point x="524" y="463"/>
      <point x="567" y="463" type="curve" smooth="yes"/>
      <point x="718" y="463"/>
      <point x="809" y="368"/>
      <point x="809" y="191" type="curve"/>
      <point x="505" y="191" type="line"/>
      <point x="521" y="141"/>
      <point x="561" y="122"/>
      <point x="603" y="122" type="curve" smooth="yes"/>
      <point x="654" y="122"/>
      <point x="698" y="137"/>
      <point x="741" y="168" type="curve"/>
      <point x="813" y="64" type="line"/>
      <point x="756" y="18"/>
      <point x="679" y="-12"/>
      <point x="585" y="-12" type="curve" smooth="yes"/>
      <point x="490" y="-12"/>
      <point x="409" y="30"/>
      <point x="369" y="81" type="curve"/>
      <point x="309" y="12"/>
      <point x="244" y="-7"/>
      <point x="168" y="-7" type="curve" smooth="yes"/>
      <point x="89" y="-7"/>
      <point x="19" y="39"/>
      <point x="19" y="121" type="curve" smooth="yes"/>
      <point x="19" y="229"/>
      <point x="121" y="282"/>
      <point x="315" y="289" type="curve"/>
      <point x="315" y="295" type="line" smooth="yes"/>
      <point x="315" y="322"/>
      <point x="294" y="335"/>
      <point x="245" y="335" type="curve" smooth="yes"/>
      <point x="202" y="335"/>
      <point x="149" y="323"/>
      <point x="106" y="301" type="curve"/>
      <point x="57" y="415" type="line"/>
      <point x="119" y="445"/>
      <point x="191" y="464"/>
      <point x="276" y="464" type="curve" smooth="yes"/>
      <point x="353" y="464"/>
      <point x="394" y="444"/>
    </contour>
    <contour>
      <point x="615" y="282" type="line"/>
      <point x="615" y="334"/>
      <point x="596" y="359"/>
      <point x="562" y="359" type="curve" smooth="yes"/>
      <point x="530" y="359"/>
      <point x="501" y="333"/>
      <point x="501" y="282" type="curve"/>
    </contour>
    <contour>
      <point x="325" y="200" type="curve"/>
      <point x="316" y="200" type="line" smooth="yes"/>
      <point x="250" y="200"/>
      <point x="222" y="178"/>
      <point x="222" y="146" type="curve" smooth="yes"/>
      <point x="222" y="123"/>
      <point x="244" y="109"/>
      <point x="266" y="109" type="curve" smooth="yes"/>
      <point x="291" y="109"/>
      <point x="325" y="125"/>
      <point x="325" y="155" type="curve" smooth="yes"/>
      <point x="325" y="159"/>
      <point x="325" y="196"/>
    </contour>
  </outline>
</glyph>
<glyph name="ccedilla" format="1">
  <advance width="486"/>
  <unicode hex="00E7"/>
  <outline>
    <contour>
      <point x="237" y="-9" type="line"/>
      <point x="113" y="10"/>
      <point x="20" y="98"/>
      <point x="20" y="229" type="curve" smooth="yes"/>
      <point x="20" y="372"/>
      <point x="141" y="473"/>
      <point x="285" y="473" type="curve" smooth="yes"/>
      <point x="377" y="473"/>
      <point x="434" y="438"/>
      <point x="476" y="385" type="curve"/>
      <point x="347" y="273" type="line"/>
      <point x="332" y="295"/>
      <point x="313" y="310"/>
      <point x="286" y="310" type="curve" smooth="yes"/>
      <point x="247" y="310"/>
      <point x="222" y="276"/>
      <point x="222" y="229" type="curve" smooth="yes"/>
      <point x="222" y="184"/>
      <point x="247" y="151"/>
      <point x="286" y="151" type="curve" smooth="yes"/>
      <point x="313" y="151"/>
      <point x="331" y="164"/>
      <point x="351" y="188" type="curve"/>
      <point x="481" y="84" type="line"/>
      <point x="441" y="33"/>
      <point x="385" y="-5"/>
      <point x="307" y="-11" type="curve"/>
      <point x="295" y="-26" type="line"/>
      <point x="350" y="-23"/>
      <point x="386" y="-59"/>
      <point x="386" y="-95" type="curve" smooth="yes"/>
      <point x="386" y="-149"/>
      <point x="335" y="-193"/>
      <point x="278" y="-193" type="curve" smooth="yes"/>
      <point x="236" y="-193"/>
      <point x="196" y="-180"/>
      <point x="169" y="-161" type="curve"/>
      <point x="205" y="-103" type="line"/>
      <point x="228" y="-115"/>
      <point x="247" y="-122"/>
      <point x="272" y="-122" type="curve" smooth="yes"/>
      <point x="290" y="-122"/>
      <point x="300" y="-113"/>
      <point x="300" y="-103" type="curve" smooth="yes"/>
      <point x="300" y="-94"/>
      <point x="291" y="-86"/>
      <point x="271" y="-86" type="curve" smooth="yes"/>
      <point x="258" y="-86"/>
      <point x="241" y="-92"/>
      <point x="232" y="-98" type="curve"/>
      <point x="209" y="-48" type="line"/>
    </contour>
  </outline>
</glyph>
<glyph name="eth" format="1">
  <advance width="536"/>
  <unicode hex="00F0"/>
  <outline>
    <contour>
      <point x="360" y="669" type="curve"/>
      <point x="459" y="711" type="line"/>
      <point x="501" y="613" type="line"/>
      <point x="432" y="584" type="line"/>
      <point x="484" y="509"/>
      <point x="524" y="410"/>
      <point x="524" y="282" type="curve" smooth="yes"/>
      <point x="524" y="57"/>
      <point x="365" y="-12"/>
      <point x="269" y="-12" type="curve" smooth="yes"/>
      <point x="117" y="-12"/>
      <point x="12" y="95"/>
      <point x="12" y="222" type="curve" smooth="yes"/>
      <point x="12" y="367"/>
      <point x="100" y="458"/>
      <point x="219" y="458" type="curve" smooth="yes"/>
      <point x="258" y="458"/>
      <point x="290" y="440"/>
      <point x="305" y="424" type="curve"/>
      <point x="300" y="449"/>
      <point x="284" y="481"/>
      <point x="260" y="512" type="curve"/>
      <point x="131" y="458" type="line"/>
      <point x="86" y="554" type="line"/>
      <point x="179" y="593" type="line"/>
      <point x="160" y="609"/>
      <point x="139" y="622"/>
      <point x="117" y="632" type="curve"/>
      <point x="244" y="760" type="line"/>
      <point x="275" y="740"/>
      <point x="318" y="711"/>
    </contour>
    <contour>
      <point x="267" y="297" type="curve" smooth="yes"/>
      <point x="235" y="297"/>
      <point x="223" y="266"/>
      <point x="223" y="222" type="curve" smooth="yes"/>
      <point x="223" y="181"/>
      <point x="240" y="151"/>
      <point x="267" y="151" type="curve" smooth="yes"/>
      <point x="299" y="151"/>
      <point x="311" y="181"/>
      <point x="311" y="231" type="curve" smooth="yes"/>
      <point x="311" y="266"/>
      <point x="299" y="297"/>
    </contour>
  </outline>
</glyph>
<glyph name="oslash" format="1">
  <advance width="570"/>
  <unicode hex="00F8"/>
  <outline>
    <contour>
      <point x="431" y="437" type="curve"/>
      <point x="478" y="484" type="line"/>
      <point x="548" y="413" type="line"/>
      <point x="505" y="372" type="line"/>
      <point x="534" y="334"/>
      <point x="550" y="287"/>
      <point x="550" y="232" type="curve" smooth="yes"/>
      <point x="550" y="89"/>
      <point x="429" y="-12"/>
      <point x="285" y="-12" type="curve" smooth="yes"/>
      <point x="229" y="-12"/>
      <point x="178" y="2"/>
      <point x="135" y="26" type="curve"/>
      <point x="83" y="-25" type="line"/>
      <point x="13" y="43" type="line"/>
      <point x="62" y="91" type="line"/>
      <point x="35" y="129"/>
      <point x="20" y="176"/>
      <point x="20" y="229" type="curve" smooth="yes"/>
      <point x="20" y="372"/>
      <point x="141" y="473"/>
      <point x="285" y="473" type="curve" smooth="yes"/>
      <point x="339" y="473"/>
      <point x="389" y="460"/>
    </contour>
    <contour>
      <point x="353" y="232" type="curve" smooth="yes"/>
      <point x="353" y="279"/>
      <point x="325" y="315"/>
      <point x="284" y="315" type="curve" smooth="yes"/>
      <point x="245" y="315"/>
      <point x="217" y="278"/>
      <point x="217" y="229" type="curve" smooth="yes"/>
      <point x="217" y="182"/>
      <point x="245" y="146"/>
      <point x="286" y="146" type="curve" smooth="yes"/>
      <point x="325" y="146"/>
      <point x="353" y="183"/>
    </contour>
  </outline>
</glyph>
<glyph name="dotlessi" format="1">
  <advance width="312"/>
  <unicode hex="0131"/>
  <outline>
    <contour>
      <point x="268" y="0" type="line"/>
      <point x="44" y="0" type="line"/>
      <point x="44" y="461" type="line"/>
      <point x="268" y="461" type="line"/>
    </contour>
  </outline>
</glyph>
<glyph name="Lslash" format="1">
  <advance width="591"/>
  <unicode hex="0141"/>
  <outline>
    <contour>
      <point x="82" y="0" type="line"/>
      <point x="82" y="262" type="line"/>
      <point x="45" y="247" type="line"/>
      <point x="-26" y="394" type="line"/>
      <point x="82" y="436" type="line"/>
      <point x="82" y="730" type="line"/>
      <point x="308" y="730" type="line"/>
      <point x="308" y="531" type="line"/>
      <point x="358" y="551" type="line"/>
      <point x="427" y="405" type="line"/>
      <point x="308" y="356" type="line"/>
      <point x="308" y="181" type="line"/>
      <point x="551" y="181" type="line"/>
      <point x="551" y="0" type="line"/>
    </contour>
  </outline>
</glyph>
<glyph name="lslash" format="1">
  <advance width="371"/>
  <unicode hex="0142"/>
  <outline>
    <contour>
      <point x="298" y="531" type="line"/>
      <point x="332" y="545" type="line"/>
      <point x="398" y="389" type="line"/>
      <point x="298" y="347" type="line"/>
      <point x="298" y="0" type="line"/>
      <point x="74" y="0" type="line"/>
      <point x="74" y="251" type="line"/>
      <point x="40" y="237" type="line"/>
      <point x="-24" y="397" type="line"/>
      <point x="74" y="437" type="line"/>
      <point x="74" y="730" type="line"/>
      <point x="298" y="730" type="line"/>
    </contour>
  </outline>
</glyph>
<glyph name="OE" format="1">
  <advance width="1037"/>
  <unicode hex="0152"/>
  <outline>
    <contour>
      <point x="586" y="687" type="curve"/>
      <point x="586" y="730" type="line"/>
      <point x="982" y="730" type="line"/>
      <point x="982" y="546" type="line"/>
      <point x="770" y="546" type="line"/>
      <point x="770" y="455" type="line"/>
      <point x="948" y="455" type="line"/>
      <point x="948" y="273" type="line"/>
      <point x="770" y="273" type="line"/>
      <point x="770" y="184" type="line"/>
      <point x="992" y="184" type="line"/>
      <point x="992" y="0" type="line"/>
      <point x="586" y="0" type="line"/>
      <point x="586" y="45" type="line"/>
      <point x="552" y="18"/>
      <point x="485" y="-12"/>
      <point x="407" y="-12" type="curve" smooth="yes"/>
      <point x="184" y="-12"/>
      <point x="29" y="146"/>
      <point x="29" y="364" type="curve" smooth="yes"/>
      <point x="29" y="631"/>
      <point x="228" y="739"/>
      <point x="404" y="739" type="curve" smooth="yes"/>
      <point x="472" y="739"/>
      <point x="545" y="719"/>
    </contour>
    <contour>
      <point x="566" y="364" type="curve" smooth="yes"/>
      <point x="566" y="469"/>
      <point x="508" y="548"/>
      <point x="419" y="548" type="curve" smooth="yes"/>
      <point x="330" y="548"/>
      <point x="268" y="471"/>
      <point x="268" y="366" type="curve" smooth="yes"/>
      <point x="268" y="261"/>
      <point x="332" y="182"/>
      <point x="421" y="182" type="curve" smooth="yes"/>
      <point x="510" y="182"/>
      <point x="566" y="259"/>
    </contour>
  </outline>
</glyph>
<glyph name="oe" format="1">
  <advance width="874"/>
  <unicode hex="0153"/>
  <outline>
    <contour>
      <point x="447" y="426" type="curve"/>
      <point x="486" y="455"/>
      <point x="539" y="473"/>
      <point x="597" y="473" type="curve" smooth="yes"/>
      <point x="751" y="473"/>
      <point x="852" y="379"/>
      <point x="852" y="191" type="curve"/>
      <point x="548" y="191" type="line"/>
      <point x="561" y="142"/>
      <point x="604" y="122"/>
      <point x="646" y="122" type="curve" smooth="yes"/>
      <point x="697" y="122"/>
      <point x="741" y="137"/>
      <point x="784" y="168" type="curve"/>
      <point x="856" y="64" type="line"/>
      <point x="799" y="18"/>
      <point x="722" y="-12"/>
      <point x="628" y="-12" type="curve" smooth="yes"/>
      <point x="554" y="-12"/>
      <point x="492" y="6"/>
      <point x="446" y="38" type="curve"/>
      <point x="402" y="6"/>
      <point x="346" y="-12"/>
      <point x="285" y="-12" type="curve" smooth="yes"/>
      <point x="138" y="-12"/>
      <point x="20" y="82"/>
      <point x="20" y="229" type="curve" smooth="yes"/>
      <point x="20" y="372"/>
      <point x="141" y="473"/>
      <point x="285" y="473" type="curve" smooth="yes"/>
      <point x="347" y="473"/>
      <point x="403" y="456"/>
    </contour>
    <contour>
      <point x="658" y="282" type="line"/>
      <point x="658" y="327"/>
      <point x="636" y="356"/>
      <point x="602" y="356" type="curve" smooth="yes"/>
      <point x="570" y="356"/>
      <point x="542" y="330"/>
      <point x="542" y="282" type="curve"/>
    </contour>
    <contour>
      <point x="353" y="232" type="curve" smooth="yes"/>
      <point x="353" y="279"/>
      <point x="325" y="315"/>
      <point x="284" y="315" type="curve" smooth="yes"/>
      <point x="245" y="315"/>
      <point x="217" y="278"/>
      <point x="217" y="229" type="curve" smooth="yes"/>
      <point x="217" y="182"/>
      <point x="245" y="146"/>
      <point x="286" y="146" type="curve" smooth="yes"/>
      <point x="325" y="146"/>
      <point x="353" y="183"/>
    </contour>
  </outline>
</glyph>
<glyph name="florin" format="1">
  <advance width="428"/>
  <unicode hex="0192"/>
  <outline>
    <contour>
      <point x="12" y="-179" type="curve"/>
      <point x="27" y="-3" type="line"/>
      <point x="27" y="-3"/>
      <point x="43" y="-3"/>
      <point x="47" y="-3" type="curve" smooth="yes"/>
      <point x="65" y="-3"/>
      <point x="69" y="16"/>
      <point x="72" y="48" type="curve" smooth="yes"/>
      <point x="95" y="302" type="line"/>
      <point x="47" y="302" type="line"/>
      <point x="59" y="450" type="line"/>
      <point x="107" y="450" type="line"/>
      <point x="118" y="568" type="line" smooth="yes"/>
      <point x="127" y="666"/>
      <point x="165" y="742"/>
      <point x="281" y="742" type="curve" smooth="yes"/>
      <point x="328" y="742"/>
      <point x="387" y="742"/>
      <point x="397" y="742" type="curve"/>
      <point x="382" y="576" type="line"/>
      <point x="373" y="576"/>
      <point x="360" y="576"/>
      <point x="357" y="576" type="curve" smooth="yes"/>
      <point x="340" y="576"/>
      <point x="336" y="553"/>
      <point x="334" y="527" type="curve" smooth="yes"/>
      <point x="328" y="450" type="line"/>
      <point x="377" y="450" type="line"/>
      <point x="365" y="302" type="line"/>
      <point x="316" y="302" type="line"/>
      <point x="288" y="-9" type="line" smooth="yes"/>
      <point x="280" y="-100"/>
      <point x="250" y="-179"/>
      <point x="125" y="-179" type="curve" smooth="yes"/>
      <point x="112" y="-179"/>
      <point x="12" y="-179"/>
    </contour>
  </outline>
</glyph>
<glyph name="circumflex" format="1">
  <advance width="500"/>
  <unicode hex="02C6"/>
  <outline>
    <contour>
      <point x="181" y="675" type="line"/>
      <point x="317" y="675" type="line"/>
      <point x="431" y="498" type="line"/>
      <point x="295" y="498" type="line"/>
      <point x="249" y="565" type="line"/>
      <point x="203" y="498" type="line"/>
      <point x="67" y="498" type="line"/>
    </contour>
  </outline>
</glyph>
<glyph name="caron" format="1">
  <advance width="500"/>
  <unicode hex="02C7"/>
  <outline>
    <contour>
      <point x="181" y="498" type="line"/>
      <point x="67" y="675" type="line"/>
      <point x="203" y="675" type="line"/>
      <point x="249" y="608" type="line"/>
      <point x="295" y="675" type="line"/>
      <point x="431" y="675" type="line"/>
      <point x="317" y="498" type="line"/>
    </contour>
  </outline>
</glyph>
<glyph name="breve" format="1">
  <advance width="500"/>
  <unicode hex="02D8"/>
  <outline>
    <contour>
      <point x="180" y="661" type="line"/>
      <point x="190" y="616"/>
      <point x="219" y="597"/>
      <point x="251" y="597" type="curve" smooth="yes"/>
      <point x="282" y="597"/>
      <point x="309" y="616"/>
      <point x="319" y="661" type="curve"/>
      <point x="417" y="661" type="line"/>
      <point x="408" y="549"/>
      <point x="337" y="498"/>
      <point x="250" y="498" type="curve" smooth="yes"/>
      <point x="163" y="498"/>
      <point x="92" y="549"/>
      <point x="84" y="661" type="curve"/>
    </contour>
  </outline>
</glyph>
<glyph name="dotaccent" format="1">
  <advance width="500"/>
  <unicode hex="02D9"/>
  <outline>
    <contour>
      <point x="165" y="498" type="line"/>
      <point x="165" y="652" type="line"/>
      <point x="331" y="652" type="line"/>
      <point x="331" y="498" type="line"/>
    </contour>
  </outline>
</glyph>
<glyph name="ring" format="1">
  <advance width="500"/>
  <unicode hex="02DA"/>
  <outline>
    <contour>
      <point x="398" y="646" type="curve" smooth="yes"/>
      <point x="398" y="564"/>
      <point x="332" y="498"/>
      <point x="250" y="498" type="curve" smooth="yes"/>
      <point x="168" y="498"/>
      <point x="102" y="564"/>
      <point x="102" y="646" type="curve" smooth="yes"/>
      <point x="102" y="728"/>
      <point x="168" y="794"/>
      <point x="250" y="794" type="curve" smooth="yes"/>
      <point x="332" y="794"/>
      <point x="398" y="728"/>
    </contour>
    <contour>
      <point x="250" y="696" type="curve" smooth="yes"/>
      <point x="222" y="696"/>
      <point x="201" y="674"/>
      <point x="201" y="646" type="curve" smooth="yes"/>
      <point x="201" y="619"/>
      <point x="222" y="596"/>
      <point x="250" y="596" type="curve" smooth="yes"/>
      <point x="278" y="596"/>
      <point x="299" y="619"/>
      <point x="299" y="646" type="curve" smooth="yes"/>
      <point x="299" y="674"/>
      <point x="278" y="696"/>
    </contour>
  </outline>
</glyph>
<glyph name="ogonek" format="1">
  <advance width="500"/>
  <unicode hex="02DB"/>
  <outline>
    <contour>
      <point x="120" y="-103" type="curve" smooth="yes"/>
      <point x="120" y="-63"/>
      <point x="156" y="-10"/>
      <point x="231" y="19" type="curve"/>
      <point x="344" y="19" type="line"/>
      <point x="249" y="-36"/>
      <point x="229" y="-67"/>
      <point x="229" y="-91" type="curve" smooth="yes"/>
      <point x="229" y="-109"/>
      <point x="246" y="-120"/>
      <point x="267" y="-120" type="curve" smooth="yes"/>
      <point x="283" y="-120"/>
      <point x="300" y="-114"/>
      <point x="324" y="-99" type="curve"/>
      <point x="365" y="-155" type="line"/>
      <point x="325" y="-186"/>
      <point x="292" y="-199"/>
      <point x="247" y="-199" type="curve" smooth="yes"/>
      <point x="175" y="-199"/>
      <point x="120" y="-161"/>
    </contour>
  </outline>
</glyph>
<glyph name="tilde" format="1">
  <advance width="500"/>
  <unicode hex="02DC"/>
  <outline>
    <contour>
      <point x="28" y="498" type="line"/>
      <point x="30" y="603"/>
      <point x="86" y="659"/>
      <point x="162" y="659" type="curve" smooth="yes"/>
      <point x="216" y="659"/>
      <point x="266" y="616"/>
      <point x="297" y="616" type="curve" smooth="yes"/>
      <point x="315" y="616"/>
      <point x="333" y="624"/>
      <point x="331" y="657" type="curve"/>
      <point x="438" y="657" type="line"/>
      <point x="438" y="551"/>
      <point x="381" y="496"/>
      <point x="304" y="496" type="curve" smooth="yes"/>
      <point x="246" y="496"/>
      <point x="198" y="539"/>
      <point x="167" y="539" type="curve" smooth="yes"/>
      <point x="149" y="539"/>
      <point x="132" y="530"/>
      <point x="134" y="498" type="curve"/>
    </contour>
  </outline>
</glyph>
<glyph name="hungarumlaut" format="1">
  <advance width="500"/>
  <unicode hex="02DD"/>
  <outline>
    <contour>
      <point x="378" y="498" type="line"/>
      <point x="227" y="498" type="line"/>
      <point x="321" y="676" type="line"/>
      <point x="474" y="676" type="line"/>
    </contour>
    <contour>
      <point x="178" y="498" type="line"/>
      <point x="25" y="498" type="line"/>
      <point x="119" y="676" type="line"/>
      <point x="274" y="676" type="line"/>
    </contour>
  </outline>
</glyph>
<glyph name="endash" format="1">
  <advance width="550"/>
  <unicode hex="2013"/>
  <outline>
    <contour>
      <point x="522" y="196" type="line"/>
      <point x="28" y="196" type="line"/>
      <point x="28" y="382" type="line"/>
      <point x="522" y="382" type="line"/>
    </contour>
  </outline>
</glyph>
<glyph name="emdash" format="1">
  <advance width="940"/>
  <unicode hex="2014"/>
  <outline>
    <contour>
      <point x="912" y="196" type="line"/>
      <point x="28" y="196" type="line"/>
      <point x="28" y="382" type="line"/>
      <point x="912" y="382" type="line"/>
    </contour>
  </outline>
</glyph>
<glyph name="quoteleft" format="1">
  <advance width="300"/>
  <unicode hex="2018"/>
  <unicode hex="02BB"/>
  <outline>
    <contour>
      <point x="288" y="672" type="line"/>
      <point x="264" y="637"/>
      <point x="256" y="596"/>
      <point x="256" y="546" type="curve" smooth="yes"/>
      <point x="256" y="379" type="line"/>
      <point x="37" y="379" type="line"/>
      <point x="37" y="518" type="line" smooth="yes"/>
      <point x="37" y="620"/>
      <point x="80" y="694"/>
      <point x="165" y="751" type="curve"/>
    </contour>
  </outline>
</glyph>
<glyph name="quoteright" format="1">
  <advance width="300"/>
  <unicode hex="2019"/>
  <unicode hex="02BC"/>
  <outline>
    <contour>
      <point x="263" y="591" type="line" smooth="yes"/>
      <point x="263" y="489"/>
      <point x="220" y="415"/>
      <point x="135" y="358" type="curve"/>
      <point x="12" y="437" type="line"/>
      <point x="36" y="472"/>
      <point x="44" y="513"/>
      <point x="44" y="563" type="curve" smooth="yes"/>
      <point x="44" y="730" type="line"/>
      <point x="263" y="730" type="line"/>
    </contour>
  </outline>
</glyph>
<glyph name="quotesinglbase" format="1">
  <advance width="300"/>
  <unicode hex="201A"/>
  <outline>
    <contour>
      <point x="256" y="83" type="line" smooth="yes"/>
      <point x="256" y="-19"/>
      <point x="213" y="-93"/>
      <point x="128" y="-150" type="curve"/>
      <point x="5" y="-71" type="line"/>
      <point x="29" y="-36"/>
      <point x="37" y="5"/>
      <point x="37" y="55" type="curve" smooth="yes"/>
      <point x="37" y="222" type="line"/>
      <point x="256" y="222" type="line"/>
    </contour>
  </outline>
</glyph>
<glyph name="quotedblleft" format="1">
  <advance width="590"/>
  <unicode hex="201C"/>
  <outline>
    <contour>
      <point x="578" y="672" type="line"/>
      <point x="554" y="637"/>
      <point x="546" y="596"/>
      <point x="546" y="546" type="curve" smooth="yes"/>
      <point x="546" y="379" type="line"/>
      <point x="327" y="379" type="line"/>
      <point x="327" y="518" type="line" smooth="yes"/>
      <point x="327" y="620"/>
      <point x="370" y="694"/>
      <point x="455" y="751" type="curve"/>
    </contour>
    <contour>
      <point x="288" y="672" type="line"/>
      <point x="264" y="637"/>
      <point x="256" y="596"/>
      <point x="256" y="546" type="curve" smooth="yes"/>
      <point x="256" y="379" type="line"/>
      <point x="37" y="379" type="line"/>
      <point x="37" y="518" type="line" smooth="yes"/>
      <point x="37" y="620"/>
      <point x="80" y="694"/>
      <point x="165" y="751" type="curve"/>
    </contour>
  </outline>
</glyph>
<glyph name="quotedblright" format="1">
  <advance width="590"/>
  <unicode hex="201D"/>
  <outline>
    <contour>
      <point x="553" y="591" type="line" smooth="yes"/>
      <point x="553" y="489"/>
      <point x="510" y="415"/>
      <point x="425" y="358" type="curve"/>
      <point x="302" y="437" type="line"/>
      <point x="326" y="472"/>
      <point x="334" y="513"/>
      <point x="334" y="563" type="curve" smooth="yes"/>
      <point x="334" y="730" type="line"/>
      <point x="553" y="730" type="line"/>
    </contour>
    <contour>
      <point x="263" y="591" type="line" smooth="yes"/>
      <point x="263" y="489"/>
      <point x="220" y="415"/>
      <point x="135" y="358" type="curve"/>
      <point x="12" y="437" type="line"/>
      <point x="36" y="472"/>
      <point x="44" y="513"/>
      <point x="44" y="563" type="curve" smooth="yes"/>
      <point x="44" y="730" type="line"/>
      <point x="263" y="730" type="line"/>
    </contour>
  </outline>
</glyph>
<glyph name="quotedblbase" format="1">
  <advance width="590"/>
  <unicode hex="201E"/>
  <outline>
    <contour>
      <point x="546" y="83" type="line" smooth="yes"/>
      <point x="546" y="-19"/>
      <point x="503" y="-93"/>
      <point x="418" y="-150" type="curve"/>
      <point x="295" y="-71" type="line"/>
      <point x="319" y="-36"/>
      <point x="327" y="5"/>
      <point x="327" y="55" type="curve" smooth="yes"/>
      <point x="327" y="222" type="line"/>
      <point x="546" y="222" type="line"/>
    </contour>
    <contour>
      <point x="256" y="83" type="line" smooth="yes"/>
      <point x="256" y="-19"/>
      <point x="213" y="-93"/>
      <point x="128" y="-150" type="curve"/>
      <point x="5" y="-71" type="line"/>
      <point x="29" y="-36"/>
      <point x="37" y="5"/>
      <point x="37" y="55" type="curve" smooth="yes"/>
      <point x="37" y="222" type="line"/>
      <point x="256" y="222" type="line"/>
    </contour>
  </outline>
</glyph>
<glyph name="dagger" format="1">
  <advance width="575"/>
  <unicode hex="2020"/>
  <outline>
    <contour>
      <point x="555" y="307" type="line"/>
      <point x="403" y="307" type="line"/>
      <point x="403" y="157" type="line"/>
      <point x="363" y="-179" type="line"/>
      <point x="212" y="-179" type="line"/>
      <point x="172" y="157" type="line"/>
      <point x="172" y="307" type="line"/>
      <point x="20" y="307" type="line"/>
      <point x="20" y="501" type="line"/>
      <point x="172" y="501" type="line"/>
      <point x="172" y="730" type="line"/>
      <point x="403" y="730" type="line"/>
      <point x="403" y="501" type="line"/>
      <point x="555" y="501" type="line"/>
    </contour>
  </outline>
</glyph>
<glyph name="daggerdbl" format="1">
  <advance width="575"/>
  <unicode hex="2021"/>
  <outline>
    <contour>
      <point x="555" y="0" type="line"/>
      <point x="403" y="0" type="line"/>
      <point x="403" y="-179" type="line"/>
      <point x="172" y="-179" type="line"/>
      <point x="172" y="0" type="line"/>
      <point x="20" y="0" type="line"/>
      <point x="20" y="174" type="line"/>
      <point x="172" y="174" type="line"/>
      <point x="209" y="275" type="line"/>
      <point x="172" y="377" type="line"/>
      <point x="20" y="377" type="line"/>
      <point x="20" y="551" type="line"/>
      <point x="172" y="551" type="line"/>
      <point x="172" y="730" type="line"/>
      <point x="403" y="730" type="line"/>
      <point x="403" y="551" type="line"/>
      <point x="555" y="551" type="line"/>
      <point x="555" y="377" type="line"/>
      <point x="403" y="377" type="line"/>
      <point x="366" y="276" type="line"/>
      <point x="403" y="174" type="line"/>
      <point x="555" y="174" type="line"/>
    </contour>
  </outline>
</glyph>
<glyph name="ellipsis" format="1">
  <advance width="884"/>
  <unicode hex="2026"/>
  <outline>
    <contour>
      <point x="630" y="0" type="line"/>
      <point x="630" y="192" type="line"/>
      <point x="832" y="192" type="line"/>
      <point x="832" y="0" type="line"/>
    </contour>
    <contour>
      <point x="341" y="0" type="line"/>
      <point x="341" y="192" type="line"/>
      <point x="543" y="192" type="line"/>
      <point x="543" y="0" type="line"/>
    </contour>
    <contour>
      <point x="52" y="0" type="line"/>
      <point x="52" y="192" type="line"/>
      <point x="254" y="192" type="line"/>
      <point x="254" y="0" type="line"/>
    </contour>
  </outline>
</glyph>
<glyph name="perthousand" format="1">
  <advance width="1259"/>
  <unicode hex="2030"/>
  <outline>
    <contour>
      <point x="381" y="543" type="curve" smooth="yes"/>
      <point x="381" y="428"/>
      <point x="299" y="344"/>
      <point x="197" y="344" type="curve" smooth="yes"/>
      <point x="95" y="344"/>
      <point x="17" y="428"/>
      <point x="17" y="543" type="curve" smooth="yes"/>
      <point x="17" y="658"/>
      <point x="99" y="742"/>
      <point x="201" y="742" type="curve" smooth="yes"/>
      <point x="303" y="742"/>
      <point x="381" y="658"/>
    </contour>
    <contour>
      <point x="755" y="730" type="line"/>
      <point x="256" y="0" type="line"/>
      <point x="105" y="0" type="line"/>
      <point x="604" y="730" type="line"/>
    </contour>
    <contour>
      <point x="1243" y="187" type="curve" smooth="yes"/>
      <point x="1243" y="72"/>
      <point x="1161" y="-12"/>
      <point x="1059" y="-12" type="curve" smooth="yes"/>
      <point x="957" y="-12"/>
      <point x="879" y="72"/>
      <point x="879" y="187" type="curve" smooth="yes"/>
      <point x="879" y="302"/>
      <point x="961" y="386"/>
      <point x="1063" y="386" type="curve" smooth="yes"/>
      <point x="1165" y="386"/>
      <point x="1243" y="302"/>
    </contour>
    <contour>
      <point x="843" y="187" type="curve" smooth="yes"/>
      <point x="843" y="72"/>
      <point x="761" y="-12"/>
      <point x="659" y="-12" type="curve" smooth="yes"/>
      <point x="557" y="-12"/>
      <point x="479" y="72"/>
      <point x="479" y="187" type="curve" smooth="yes"/>
      <point x="479" y="302"/>
      <point x="561" y="386"/>
      <point x="663" y="386" type="curve" smooth="yes"/>
      <point x="765" y="386"/>
      <point x="843" y="302"/>
    </contour>
    <contour>
      <point x="251" y="543" type="curve" smooth="yes"/>
      <point x="251" y="603"/>
      <point x="233" y="642"/>
      <point x="199" y="642" type="curve" smooth="yes"/>
      <point x="165" y="642"/>
      <point x="147" y="603"/>
      <point x="147" y="543" type="curve" smooth="yes"/>
      <point x="147" y="483"/>
      <point x="165" y="444"/>
      <point x="199" y="444" type="curve" smooth="yes"/>
      <point x="233" y="444"/>
      <point x="251" y="483"/>
    </contour>
    <contour>
      <point x="1113" y="187" type="curve" smooth="yes"/>
      <point x="1113" y="247"/>
      <point x="1095" y="286"/>
      <point x="1061" y="286" type="curve" smooth="yes"/>
      <point x="1027" y="286"/>
      <point x="1009" y="247"/>
      <point x="1009" y="187" type="curve" smooth="yes"/>
      <point x="1009" y="127"/>
      <point x="1027" y="88"/>
      <point x="1061" y="88" type="curve" smooth="yes"/>
      <point x="1095" y="88"/>
      <point x="1113" y="127"/>
    </contour>
    <contour>
      <point x="713" y="187" type="curve" smooth="yes"/>
      <point x="713" y="247"/>
      <point x="695" y="286"/>
      <point x="661" y="286" type="curve" smooth="yes"/>
      <point x="627" y="286"/>
      <point x="609" y="247"/>
      <point x="609" y="187" type="curve" smooth="yes"/>
      <point x="609" y="127"/>
      <point x="627" y="88"/>
      <point x="661" y="88" type="curve" smooth="yes"/>
      <point x="695" y="88"/>
      <point x="713" y="127"/>
    </contour>
  </outline>
</glyph>
<glyph name="guilsinglleft" format="1">
  <advance width="290"/>
  <unicode hex="2039"/>
  <outline>
    <contour>
      <point x="45" y="140" type="line"/>
      <point x="45" y="333" type="line"/>
      <point x="235" y="441" type="line"/>
      <point x="235" y="276" type="line"/>
      <point x="159" y="235" type="line"/>
      <point x="235" y="197" type="line"/>
      <point x="235" y="34" type="line"/>
    </contour>
  </outline>
</glyph>
<glyph name="guilsinglright" format="1">
  <advance width="290"/>
  <unicode hex="203A"/>
  <outline>
    <contour>
      <point x="257" y="140" type="line"/>
      <point x="67" y="34" type="line"/>
      <point x="67" y="197" type="line"/>
      <point x="143" y="235" type="line"/>
      <point x="67" y="276" type="line"/>
      <point x="67" y="441" type="line"/>
      <point x="257" y="333" type="line"/>
    </contour>
  </outline>
</glyph>
<glyph name="fraction" format="1">
  <advance width="500"/>
  <unicode hex="2044"/>
  <outline>
    <contour>
      <point x="574" y="730" type="line"/>
      <point x="151" y="0" type="line"/>
      <point x="-74" y="0" type="line"/>
      <point x="349" y="730" type="line"/>
    </contour>
  </outline>
</glyph>
<glyph name="Euro" format="1">
  <advance width="711"/>
  <unicode hex="20AC"/>
  <outline>
    <contour>
      <point x="684" y="591" type="curve"/>
      <point x="516" y="490" type="line"/>
      <point x="501" y="518"/>
      <point x="474" y="557"/>
      <point x="429" y="557" type="curve" smooth="yes"/>
      <point x="372" y="557"/>
      <point x="340" y="510"/>
      <point x="336" y="444" type="curve"/>
      <point x="478" y="444" type="line"/>
      <point x="478" y="401" type="line"/>
      <point x="333" y="401" type="line"/>
      <point x="332" y="379"/>
      <point x="332" y="363"/>
      <point x="333" y="341" type="curve"/>
      <point x="478" y="341" type="line"/>
      <point x="478" y="300" type="line"/>
      <point x="334" y="300" type="line"/>
      <point x="341" y="226"/>
      <point x="373" y="172"/>
      <point x="428" y="172" type="curve" smooth="yes"/>
      <point x="483" y="172"/>
      <point x="511" y="201"/>
      <point x="543" y="247" type="curve"/>
      <point x="693" y="140" type="line"/>
      <point x="624" y="26"/>
      <point x="539" y="-12"/>
      <point x="426" y="-12" type="curve" smooth="yes"/>
      <point x="200" y="-12"/>
      <point x="130" y="146"/>
      <point x="111" y="300" type="curve"/>
      <point x="14" y="300" type="line"/>
      <point x="14" y="341" type="line"/>
      <point x="108" y="341" type="line"/>
      <point x="107" y="362"/>
      <point x="107" y="380"/>
      <point x="108" y="401" type="curve"/>
      <point x="14" y="401" type="line"/>
      <point x="14" y="444" type="line"/>
      <point x="111" y="444" type="line"/>
      <point x="132" y="621"/>
      <point x="241" y="742"/>
      <point x="420" y="742" type="curve" smooth="yes"/>
      <point x="539" y="742"/>
      <point x="634" y="682"/>
    </contour>
  </outline>
</glyph>
<glyph name="uni2117" format="1">
  <advance width="844"/>
  <unicode hex="2117"/>
  <outline>
    <contour>
      <point x="799" y="365" type="curve" smooth="yes"/>
      <point x="799" y="157"/>
      <point x="630" y="-12"/>
      <point x="422" y="-12" type="curve" smooth="yes"/>
      <point x="214" y="-12"/>
      <point x="45" y="157"/>
      <point x="45" y="365" type="curve" smooth="yes"/>
      <point x="45" y="573"/>
      <point x="214" y="742"/>
      <point x="422" y="742" type="curve" smooth="yes"/>
      <point x="630" y="742"/>
      <point x="799" y="573"/>
    </contour>
    <contour>
      <point x="734" y="364" type="curve" smooth="yes"/>
      <point x="734" y="544"/>
      <point x="602" y="684"/>
      <point x="422" y="684" type="curve" smooth="yes"/>
      <point x="242" y="684"/>
      <point x="110" y="544"/>
      <point x="110" y="364" type="curve" smooth="yes"/>
      <point x="110" y="184"/>
      <point x="242" y="45"/>
      <point x="422" y="45" type="curve" smooth="yes"/>
      <point x="602" y="45"/>
      <point x="734" y="184"/>
    </contour>
    <contour>
      <point x="623" y="444" type="curve" smooth="yes"/>
      <point x="623" y="354"/>
      <point x="561" y="297"/>
      <point x="460" y="297" type="curve" smooth="yes"/>
      <point x="414" y="297" type="line"/>
      <point x="414" y="147" type="line"/>
      <point x="270" y="147" type="line"/>
      <point x="270" y="585" type="line"/>
      <point x="460" y="585" type="line" smooth="yes"/>
      <point x="560" y="585"/>
      <point x="623" y="534"/>
    </contour>
    <contour>
      <point x="487" y="440" type="curve" smooth="yes"/>
      <point x="487" y="469"/>
      <point x="471" y="480"/>
      <point x="441" y="480" type="curve" smooth="yes"/>
      <point x="412" y="480" type="line"/>
      <point x="412" y="399" type="line"/>
      <point x="441" y="399" type="line" smooth="yes"/>
      <point x="472" y="399"/>
      <point x="487" y="413"/>
    </contour>
  </outline>
</glyph>
<glyph name="minus" format="1">
  <advance width="523"/>
  <unicode hex="2212"/>
  <outline>
    <contour>
      <point x="486" y="196" type="line"/>
      <point x="37" y="196" type="line"/>
      <point x="37" y="402" type="line"/>
      <point x="486" y="402" type="line"/>
    </contour>
  </outline>
</glyph>
<glyph name="radical" format="1">
  <advance width="654"/>
  <unicode hex="221A"/>
  <outline>
    <contour>
      <point x="649" y="730" type="line"/>
      <point x="410" y="0" type="line"/>
      <point x="170" y="0" type="line"/>
      <point x="10" y="432" type="line"/>
      <point x="228" y="432" type="line"/>
      <point x="276" y="295" type="line" smooth="yes"/>
      <point x="288" y="260"/>
      <point x="299" y="222"/>
      <point x="299" y="222" type="curve"/>
      <point x="299" y="222"/>
      <point x="308" y="263"/>
      <point x="317" y="295" type="curve" smooth="yes"/>
      <point x="437" y="730" type="line"/>
    </contour>
  </outline>
</glyph>
<glyph name="apple" format="1">
  <advance width="730"/>
  <unicode hex="F8FF"/>
  <outline>
    <contour>
      <point x="532" y="568" type="line"/>
      <point x="198" y="568" type="line"/>
      <point x="198" y="730" type="line"/>
      <point x="532" y="730" type="line"/>
    </contour>
    <contour>
      <point x="730" y="198" type="line"/>
      <point x="568" y="198" type="line"/>
      <point x="568" y="532" type="line"/>
      <point x="730" y="532" type="line"/>
    </contour>
    <contour>
      <point x="532" y="198" type="line"/>
      <point x="198" y="198" type="line"/>
      <point x="198" y="532" type="line"/>
      <point x="532" y="532" type="line"/>
    </contour>
    <contour>
      <point x="162" y="198" type="line"/>
      <point x="0" y="198" type="line"/>
      <point x="0" y="532" type="line"/>
      <point x="162" y="532" type="line"/>
    </contour>
    <contour>
      <point x="532" y="0" type="line"/>
      <point x="198" y="0" type="line"/>
      <point x="198" y="162" type="line"/>
      <point x="532" y="162" type="line"/>
    </contour>
  </outline>
</glyph>
<glyph name="f_f_l" format="1">
  <advance width="1032"/>
  <unicode hex="FB04"/>
  <outline>
    <contour>
      <point x="988" y="0" type="line"/>
      <point x="764" y="0" type="line"/>
      <point x="764" y="730" type="line"/>
      <point x="988" y="730" type="line"/>
    </contour>
    <contour>
      <point x="705" y="312" type="line"/>
      <point x="643" y="312" type="line"/>
      <point x="643" y="0" type="line"/>
      <point x="422" y="0" type="line"/>
      <point x="422" y="312" type="line"/>
      <point x="375" y="312" type="line"/>
      <point x="375" y="461" type="line"/>
      <point x="422" y="461" type="line"/>
      <point x="422" y="569" type="line" smooth="yes"/>
      <point x="422" y="665"/>
      <point x="474" y="730"/>
      <point x="574" y="730" type="curve" smooth="yes"/>
      <point x="700" y="730" type="line"/>
      <point x="700" y="574" type="line"/>
      <point x="682" y="574" type="line" smooth="yes"/>
      <point x="652" y="574"/>
      <point x="643" y="553"/>
      <point x="643" y="521" type="curve" smooth="yes"/>
      <point x="643" y="461" type="line"/>
      <point x="705" y="461" type="line"/>
    </contour>
    <contour>
      <point x="345" y="312" type="line"/>
      <point x="283" y="312" type="line"/>
      <point x="283" y="0" type="line"/>
      <point x="62" y="0" type="line"/>
      <point x="62" y="312" type="line"/>
      <point x="15" y="312" type="line"/>
      <point x="15" y="461" type="line"/>
      <point x="62" y="461" type="line"/>
      <point x="62" y="569" type="line" smooth="yes"/>
      <point x="62" y="665"/>
      <point x="114" y="730"/>
      <point x="214" y="730" type="curve" smooth="yes"/>
      <point x="340" y="730" type="line"/>
      <point x="340" y="574" type="line"/>
      <point x="322" y="574" type="line" smooth="yes"/>
      <point x="292" y="574"/>
      <point x="283" y="553"/>
      <point x="283" y="521" type="curve" smooth="yes"/>
      <point x="283" y="461" type="line"/>
      <point x="345" y="461" type="line"/>
    </contour>
  </outline>
</glyph>
<glyph name="bullet" format="1">
  <advance width="620"/>
  <outline>
    <contour>
      <point x="554" y="380" type="curve" smooth="yes"/>
      <point x="554" y="242"/>
      <point x="448" y="136"/>
      <point x="310" y="136" type="curve" smooth="yes"/>
      <point x="172" y="136"/>
      <point x="66" y="242"/>
      <point x="66" y="380" type="curve" smooth="yes"/>
      <point x="66" y="518"/>
      <point x="172" y="624"/>
      <point x="310" y="624" type="curve" smooth="yes"/>
      <point x="448" y="624"/>
      <point x="554" y="518"/>
    </contour>
  </outline>
</glyph>
<glyph name="macron" format="1">
  <advance width="500"/>
  <outline>
    <contour>
      <point x="90" y="498" type="line"/>
      <point x="90" y="615" type="line"/>
      <point x="410" y="615" type="line"/>
      <point x="410" y="498" type="line"/>
    </contour>
  </outline>
</glyph>
<glyph name="onesuperior" format="1">
  <advance width="362"/>
  <outline>
    <contour>
      <point x="285" y="325" type="line"/>
      <point x="116" y="325" type="line"/>
      <point x="116" y="566" type="line"/>
      <point x="98" y="551"/>
      <point x="71" y="544"/>
      <point x="40" y="542" type="curve"/>
      <point x="40" y="657" type="line"/>
      <point x="82" y="662"/>
      <point x="113" y="676"/>
      <point x="137" y="730" type="curve"/>
      <point x="285" y="730" type="line"/>
    </contour>
  </outline>
</glyph>
<glyph name="registered" format="1">
  <advance width="844"/>
  <outline>
    <contour>
      <point x="799" y="365" type="curve" smooth="yes"/>
      <point x="799" y="157"/>
      <point x="630" y="-12"/>
      <point x="422" y="-12" type="curve" smooth="yes"/>
      <point x="214" y="-12"/>
      <point x="45" y="157"/>
      <point x="45" y="365" type="curve" smooth="yes"/>
      <point x="45" y="573"/>
      <point x="214" y="742"/>
      <point x="422" y="742" type="curve" smooth="yes"/>
      <point x="630" y="742"/>
      <point x="799" y="573"/>
    </contour>
    <contour>
      <point x="734" y="364" type="curve" smooth="yes"/>
      <point x="734" y="544"/>
      <point x="602" y="684"/>
      <point x="422" y="684" type="curve" smooth="yes"/>
      <point x="242" y="684"/>
      <point x="110" y="544"/>
      <point x="110" y="364" type="curve" smooth="yes"/>
      <point x="110" y="184"/>
      <point x="242" y="45"/>
      <point x="422" y="45" type="curve" smooth="yes"/>
      <point x="602" y="45"/>
      <point x="734" y="184"/>
    </contour>
    <contour>
      <point x="635" y="155" type="line"/>
      <point x="479" y="155" type="line"/>
      <point x="398" y="313" type="line"/>
      <point x="398" y="155" type="line"/>
      <point x="257" y="155" type="line"/>
      <point x="257" y="593" type="line"/>
      <point x="440" y="593" type="line" smooth="yes"/>
      <point x="543" y="593"/>
      <point x="605" y="545"/>
      <point x="605" y="458" type="curve" smooth="yes"/>
      <point x="605" y="399"/>
      <point x="575" y="357"/>
      <point x="531" y="338" type="curve"/>
    </contour>
    <contour>
      <point x="471" y="445" type="curve" smooth="yes"/>
      <point x="471" y="475"/>
      <point x="454" y="488"/>
      <point x="420" y="488" type="curve" smooth="yes"/>
      <point x="397" y="488" type="line"/>
      <point x="397" y="398" type="line"/>
      <point x="420" y="398" type="line" smooth="yes"/>
      <point x="455" y="398"/>
      <point x="471" y="417"/>
    </contour>
  </outline>
</glyph>
<glyph name="threesuperior" format="1">
  <advance width="474"/>
  <outline>
    <contour>
      <point x="418" y="452" type="curve" smooth="yes"/>
      <point x="418" y="375"/>
      <point x="341" y="323"/>
      <point x="242" y="323" type="curve" smooth="yes"/>
      <point x="156" y="323"/>
      <point x="97" y="345"/>
      <point x="63" y="388" type="curve"/>
      <point x="151" y="480" type="line"/>
      <point x="169" y="459"/>
      <point x="190" y="438"/>
      <point x="224" y="438" type="curve" smooth="yes"/>
      <point x="254" y="438"/>
      <point x="264" y="451"/>
      <point x="264" y="467" type="curve" smooth="yes"/>
      <point x="264" y="483"/>
      <point x="249" y="496"/>
      <point x="217" y="496" type="curve" smooth="yes"/>
      <point x="196" y="496" type="line"/>
      <point x="196" y="574" type="line"/>
      <point x="217" y="574" type="line" smooth="yes"/>
      <point x="241" y="574"/>
      <point x="255" y="587"/>
      <point x="255" y="601" type="curve" smooth="yes"/>
      <point x="255" y="622"/>
      <point x="239" y="627"/>
      <point x="220" y="627" type="curve" smooth="yes"/>
      <point x="197" y="627"/>
      <point x="174" y="612"/>
      <point x="156" y="592" type="curve"/>
      <point x="82" y="690" type="line"/>
      <point x="121" y="724"/>
      <point x="167" y="740"/>
      <point x="242" y="740" type="curve" smooth="yes"/>
      <point x="335" y="740"/>
      <point x="409" y="701"/>
      <point x="409" y="631" type="curve" smooth="yes"/>
      <point x="409" y="585"/>
      <point x="385" y="560"/>
      <point x="357" y="543" type="curve"/>
      <point x="397" y="526"/>
      <point x="418" y="493"/>
    </contour>
  </outline>
</glyph>
